<svg xmlns="http://www.w3.org/2000/svg" viewBox="0 0 3000 2700" width="3000" height="2700"><g transform="translate(1798.5 1192.5) rotate(0.0 381.0 164.25) scale(1.499427384030508 1.4934465655275253)"><svg width="508.194" height="219.961" viewBox="0 0 508.194 219.961"><path d="M16.026 199.68h418.862l-7.909 19.046H0v-3.021c0-8.851 7.175-16.026 16.026-16.026z" fill="#b153e0"/><path d="m133.611 199.68 73.047-175.901A35.329 35.329 0 0 1 239.285 2h251.218c12.603 0 21.156 12.813 16.322 24.452L434.889 199.68z" fill="#b153e0"/><path d="m124.568 199.68 73.046-175.901A35.329 35.329 0 0 1 230.241 2h251.218c12.603 0 21.156 12.813 16.322 24.452L425.845 199.68z" fill="#fff"/><g fill="#25242e"><path d="M124.567 201.68a2 2 0 0 1-1.846-2.767l73.046-175.901A37.223 37.223 0 0 1 230.241 0h251.218c7.764 0 14.615 4.39 17.88 11.458a2 2 0 1 1-3.631 1.677C493.105 7.5 487.645 4 481.459 4H230.241a33.233 33.233 0 0 0-30.779 20.546l-73.047 175.901a2 2 0 0 1-1.848 1.233zm128.425 18.282a2 2 0 0 1-1.846-2.767l7.118-17.141a2 2 0 1 1 3.694 1.534l-7.118 17.141a2.002 2.002 0 0 1-1.848 1.233z"/></g></svg></g><g transform="translate(1347.0 1135.5) rotate(0.0 -534.75 633.0) scale(-1.4948591939081868 1.4941808383699973)"><svg width="715.452" height="847.287" viewBox="0 0 715.452 847.287"><path d="m565.625 496.118 52.442 349.169h-21.816l-69.012-317.695m-212.466 0-47.714 317.695h21.815l69.012-317.695m-308.172 0L2 845.287h21.815l69.013-317.695" fill="#25242e"/><path d="M618.067 847.287h-21.815a2.001 2.001 0 0 1-1.955-1.575l-69.013-317.695a2 2 0 0 1 3.909-.849l68.67 316.119h17.88l-52.097-346.872a2 2 0 0 1 3.956-.594l52.441 349.169a2 2 0 0 1-1.978 2.297zm-329.193 0h-21.815a2 2 0 0 1-1.978-2.297l47.714-317.694a2 2 0 1 1 3.956.594l-47.37 315.397h17.88l68.67-316.119a2 2 0 0 1 3.909.849l-69.012 317.695a2 2 0 0 1-1.955 1.575zm-265.059 0H2a2 2 0 0 1-1.978-2.297l47.714-317.694a2 2 0 1 1 3.956.594L4.323 843.287h17.88l68.67-316.119a2 2 0 0 1 3.909.849L25.77 845.711a2 2 0 0 1-1.955 1.575z" fill="#25242e"/><path d="M40.259 511.339h302.094l31.184-39.033a14.39 14.39 0 0 0 3.147-8.982V352.43c0-20.191 16.368-36.558 36.558-36.558h45.71c65.78 0 121.916-47.565 132.715-112.452l30.502-183.264C623.853 9.693 632.883 2 643.481 2h57.04c7.95 0 14.016 7.109 12.766 14.96l-61.938 388.882a79.658 79.658 0 0 1-20.086 41.449l-58.658 63.659a51.625 51.625 0 0 1-37.964 16.642H49.992z" fill="#fff"/><path d="M359.036 2h284.446l-54.395 442.357-374.968-19.731z" fill="#fff"/><path d="M49.992 527.592 14.67 471.895a14.385 14.385 0 0 1-2.238-7.706V352.431c0-20.191 16.368-36.558 36.558-36.558H94.7c65.78 0 121.916-47.565 132.715-112.452l30.502-183.264c1.684-10.463 10.714-18.156 21.312-18.156h57.04c7.95 0 14.016 7.109 12.766 14.96l-61.938 388.882-237.106 121.75z" fill="#fff"/><path d="m67.903 511.339-25.516-39.403a14.387 14.387 0 0 1-2.311-7.821V352.431c0-20.191 16.368-36.558 36.558-36.558h45.71c65.78 0 121.916-47.565 132.715-112.452l30.502-183.264c1.684-10.463 10.714-18.156 21.312-18.156h57.04c7.95 0 14.016 7.109 12.766 14.96l-61.938 388.882L67.902 511.34z" fill="#fff"/><path d="M67.903 511.339c12.868-77.302 79.744-133.965 158.109-133.965h344.491l-21.14 143.262-481.461-9.297z" fill="#fff"/><path d="M67.906 513.339a2 2 0 0 1-1.975-2.328c3.576-21.482 11.258-41.663 22.833-59.984a2 2 0 1 1 3.382 2.136c-11.289 17.868-18.781 37.552-22.269 58.504a2 2 0 0 1-1.97 1.672zm64.73-103.958a2 2 0 0 1-1.167-3.625c4.227-3.032 19.021-12.322 27.279-15.799a1.999 1.999 0 1 1 1.552 3.686c-7.989 3.364-22.379 12.407-26.5 15.363-.353.253-.76.375-1.164.375zm46.057-22.886a2 2 0 0 1-.59-3.911 162.151 162.151 0 0 1 47.909-7.21h344.492a2 2 0 0 1 0 4H226.012a158.184 158.184 0 0 0-46.729 7.031c-.197.061-.396.09-.591.09z" fill="#25242e"/><path d="M506.998 527.592a51.625 51.625 0 0 0 37.964-16.642l58.658-63.659a79.658 79.658 0 0 0 20.086-41.449L685.644 16.96C686.894 9.109 680.828 2 672.878 2h-57.04c-10.598 0-19.628 7.693-21.312 18.156L564.024 203.42c-10.8 64.888-66.935 112.452-132.715 112.452h-45.71c-20.191 0-36.558 16.368-36.558 36.558v110.894c0 3.264-1.11 6.431-3.147 8.982l-31.184 39.033" fill="#fff"/><g fill="#25242e"><path d="M314.708 513.339a2 2 0 0 1-1.561-3.249l31.184-39.033a12.437 12.437 0 0 0 2.709-7.733V352.43c0-21.261 17.297-38.558 38.559-38.558h45.71c65.074 0 120.059-46.59 130.742-110.781l30.502-183.264C594.401 8.343 604.194 0 615.837 0a2 2 0 0 1 0 4A19.505 19.505 0 0 0 596.5 20.474l-30.504 183.275a136.697 136.697 0 0 1-46.419 81.757 136.698 136.698 0 0 1-88.268 32.367h-45.71c-19.056 0-34.559 15.503-34.559 34.558v110.894c0 3.703-1.273 7.336-3.584 10.23l-31.184 39.033a1.998 1.998 0 0 1-1.564.752z"/><path d="M376.685 404.605a2 2 0 0 1-2-2v-50.174c0-9.954 3.781-19.402 10.647-26.603a2 2 0 0 1 2.896 2.761 34.402 34.402 0 0 0-9.542 23.843v50.174a2 2 0 0 1-2 2zm133.335-96.782a2 2 0 0 1-.761-3.851 132.613 132.613 0 0 0 33.269-19.77 2 2 0 1 1 2.522 3.104 136.565 136.565 0 0 1-34.271 20.366c-.249.102-.506.15-.759.15zm47.877-33.32a2 2 0 0 1-1.469-3.356c17.515-18.992 29.019-42.525 33.268-68.055l30.501-183.264C622.045 8.343 631.839 0 643.482 0a2 2 0 0 1 0 4 19.505 19.505 0 0 0-19.337 16.474l-30.503 183.275c-4.377 26.3-16.229 50.544-34.273 70.11a1.997 1.997 0 0 1-1.471.644z"/><path d="M353.312 500.1a1.999 1.999 0 0 1-1.574-3.231l17.312-22.149a25.809 25.809 0 0 0 5.635-16.06v-56.055a2 2 0 0 1 4 0v56.055a29.809 29.809 0 0 1-6.497 18.54l-17.298 22.132a1.997 1.997 0 0 1-1.577.769zM229.59 513.339H67.903c-.678 0-1.31-.344-1.679-.913l-25.516-39.403a1.994 1.994 0 0 1-.239-.52l-2.311-7.821a2.011 2.011 0 0 1-.082-.587l.398-39.489-.398-72.164a38.52 38.52 0 0 1 13.602-29.404 2 2 0 1 1 2.59 3.048 34.522 34.522 0 0 0-12.192 26.345l.398 72.184-.396 39.22 2.144 7.256 24.767 38.247H229.59a2 2 0 0 1 0 4zm-92.569-196.113a2 2 0 0 1-.266-3.982c29.596-4.017 53.488-14.302 71.014-30.568 24.089-20.337 40.158-48.579 45.319-79.583l30.501-183.264C285.437 8.343 295.23 0 306.873 0a2 2 0 0 1 0 4 19.505 19.505 0 0 0-19.337 16.474l-30.503 183.275a136.678 136.678 0 0 1-46.614 81.921c-18.071 16.776-42.698 27.407-73.126 31.538a2.079 2.079 0 0 1-.271.018zm169.684 62.148a2.001 2.001 0 0 1-1.978-2.315l56.005-351.633C363.079 10.693 375.61 0 390.528 0a2 2 0 0 1 0 4c-12.941 0-23.811 9.276-25.846 22.055l-56.005 351.633a2.001 2.001 0 0 1-1.973 1.686z"/><path d="M534.643 529.592H49.992c-.685 0-1.322-.35-1.689-.929l-35.322-55.697a16.366 16.366 0 0 1-2.548-8.778V352.43c0-21.261 17.297-38.559 38.558-38.559h45.71c65.074 0 120.059-46.59 130.742-110.781l30.502-183.262C257.793 8.343 267.586 0 279.229 0h421.292c4.375 0 8.515 1.909 11.355 5.238s4.074 7.716 3.386 12.037l-61.938 388.882a81.404 81.404 0 0 1-20.59 42.49l-58.658 63.659c-10.123 10.986-24.496 17.287-39.435 17.287zm-483.551-4h483.551c13.824 0 27.125-5.831 36.493-15.997l58.658-63.659a77.418 77.418 0 0 0 19.581-40.409l61.938-388.882a10.91 10.91 0 0 0-2.479-8.811A10.91 10.91 0 0 0 700.522 4H279.229a19.505 19.505 0 0 0-19.337 16.474l-30.503 183.275a136.693 136.693 0 0 1-46.42 81.756 136.698 136.698 0 0 1-88.268 32.367h-45.71c-19.056 0-34.558 15.503-34.558 34.559v111.758c0 2.354.666 4.648 1.926 6.635l34.733 54.768z"/></g></svg></g><g transform="translate(1758.0 400.5) rotate(0.0 468.75 425.25) scale(1.502105350859765 1.5019098359642509)"><svg width="624.124" height="566.279" viewBox="0 0 624.124 566.279"><path d="M75.481 469.174h305.898l58.015 97.105 58.015-97.105h51.234c41.687 0 75.481-33.794 75.481-75.481V75.481C624.124 33.794 590.33 0 548.643 0H75.481C33.794 0 0 33.794 0 75.481v318.213c0 41.686 33.794 75.48 75.481 75.48z" fill="#DDA6FF"/></svg></g><g transform="translate(1734.0 334.5) rotate(0.0 504.0 408.0) scale(1.5008263478403288 1.5010485265442772)"><svg width="671.63" height="543.62" viewBox="0 0 671.63 543.62"><path d="m51.311 405.8 102.643-105.703c70.668-34.158 154.638 34.452 110.854 78.445-42.856 43.062-52.941 54.297-104.999 101.422C112.801 522.518 51.311 405.8 51.311 405.8z" fill="#fff"/><path d="M137.306 491.3c-2.049 0-4.132-.188-6.248-.562-17.154-3.035-36.11-18.145-56.342-44.91-14.934-19.756-25.074-38.905-25.175-39.096a2 2 0 0 1 .335-2.326L152.52 298.703c.163-.168.354-.306.564-.407 20.711-10.012 44.679-12.095 67.487-5.865 20.53 5.608 38.356 17.318 48.907 32.128 13.552 19.022 12.336 39.73-3.253 55.395-6.97 7.003-13.072 13.164-18.63 18.774-28.505 28.777-42.813 43.223-86.444 82.719-7.238 6.553-15.237 9.853-23.845 9.853zM53.77 406.139c5.445 9.912 42.097 74.314 77.987 80.661 9.733 1.722 18.713-1.08 26.711-8.318 43.55-39.424 57.832-53.843 86.286-82.569 5.56-5.612 11.664-11.775 18.636-18.781 14.309-14.377 15.341-32.692 2.831-50.252-10.025-14.07-27.048-25.22-46.703-30.589-21.761-5.944-44.606-4.004-64.376 5.455z" fill="#25242e"/><path d="M154.122 293.956c28.43-19.547 64.925-35.674 102.045-43.64 36.713-7.879 105.375-14.487 143.709-14.64 41.184-.164 92.42 11.402 120.374 35.812 33.147 28.383-30.026 101.738-80.462 109.211l-195 17.601" fill="#fff"/><path d="M244.786 400.3a2 2 0 0 1-.178-3.992l194.941-17.596c34.038-5.077 76.696-42.228 86.15-75.04 2.623-9.105 3.582-21.817-6.751-30.665-28.2-24.626-80.073-35.489-119.065-35.331-36.215.145-105.191 6.417-143.297 14.595-35.915 7.708-71.901 23.098-101.332 43.334a2 2 0 1 1-2.265-3.297c29.851-20.524 66.345-36.133 102.758-43.947 38.339-8.229 107.709-14.539 144.121-14.685 39.72-.133 92.726 11.007 121.697 36.305 9.442 8.086 12.206 20.123 7.978 34.799-9.818 34.078-54.132 72.663-89.463 77.897a2.05 2.05 0 0 1-.113.014l-194.999 17.602a2.794 2.794 0 0 1-.182.007z" fill="#25242e"/><path d="M159.809 479.964C76.953 558.247-39.02 486.659 16.511 378.64c25.454-49.513 50.269-85.48 97.378-145.218l94.82 81.786-73.863 137.437" fill="#fff"/><path d="M83.391 515.029c-19.146 0-37.307-5.831-51.906-16.8-16.055-12.061-26.459-29.063-30.09-49.171-3.968-21.976.645-46.642 13.338-71.332 24.366-47.398 48.079-82.764 97.586-145.542a2.002 2.002 0 0 1 2.877-.276l94.819 81.786c.71.612.898 1.636.455 2.462l-73.863 137.437a2 2 0 0 1-3.523-1.895l73.104-136.022-92.021-79.373C65.72 297.828 42.31 332.832 18.289 379.555 6.002 403.457 1.52 427.245 5.331 448.348c3.448 19.097 13.322 35.24 28.556 46.685 16.077 12.078 36.728 17.613 58.143 15.587 23.571-2.231 46.535-13.334 66.407-32.109a2 2 0 1 1 2.746 2.908c-20.526 19.393-44.309 30.867-68.776 33.184a96.405 96.405 0 0 1-9.016.426zm145.699-43.772-18.714 41.977h314.311l-46.205-65.461z" fill="#25242e"/><path d="M463.403 353.942c16.695 40.03 34.476 100.635 15.079 113.592 0 0-221.812 1.126-249.393 3.723-27.861-11.089-9.075-43.826-9.095-53.676-.093-45.513-.386-68.82 3.056-76.291 1.927-4.182 8.615-15.784 16.738-29.493" fill="#fff"/><path d="M229.089 473.257a1.99 1.99 0 0 1-.739-.142c-23.067-9.182-16.446-32.272-12.489-46.068 1.147-4.001 2.138-7.456 2.134-9.462l-.02-8.441c-.099-40.811-.147-61.296 3.259-68.69 1.737-3.771 7.401-13.755 16.834-29.676a2 2 0 1 1 3.441 2.039c-9.363 15.803-14.963 25.664-16.643 29.311-3.037 6.594-2.985 28.052-2.892 67.008l.02 8.442c.005 2.572-1.007 6.103-2.289 10.572-4.013 13.993-9.498 33.119 9.687 41.072 28.811-2.501 233.007-3.604 248.453-3.685 7.473-5.558 9.088-20.839 4.667-44.276-3.569-18.921-11.207-43.177-20.955-66.549a1.999 1.999 0 1 1 3.691-1.539c9.851 23.617 17.575 48.164 21.194 67.347 4.902 25.989 2.599 42.367-6.849 48.678a2 2 0 0 1-1.102.337c-2.217.012-222.038 1.155-249.216 3.714a2.294 2.294 0 0 1-.186.008zm249.394-5.723h.01z" fill="#25242e"/><path d="M299.446 471.238a2 2 0 0 1-2-2v-98.444c0-4.932 1.483-9.681 4.29-13.732l5.383-7.772a2 2 0 0 1 3.289 2.277l-5.383 7.772a20.021 20.021 0 0 0-3.579 11.455v98.444a2 2 0 0 1-2 2z" fill="#25242e"/><path d="M320.276 427.67c17.772-10.568 58.9-24.43 98.57-28.304 50.535 7.084 117.711 87.382 97.668 113.868-9.951-.06-132.592 3.305-141.859-2.743-12.494-8.154-63.647-77.309-54.379-82.821z" fill="#fff"/><path d="M439.647 516.112c-34.499 0-61.453-.924-66.084-3.946-12.409-8.099-56.699-67.765-56.4-82.089.051-2.412 1.165-3.575 2.092-4.126 18.403-10.944 59.494-24.679 99.398-28.575.156-.018.315-.012.472.01 17.602 2.467 38.288 13.676 58.249 31.561 18.272 16.373 33.374 36.292 40.396 53.285 5.711 13.819 5.829 24.957.341 32.21a2 2 0 0 1-1.595.793c-.09.002-.187-.001-.295-.001-1.823 0-6.37.08-12.537.188-21.967.386-44.244.69-64.037.69zm-118.343-86.726c-.077.104-.241.643-.061 1.858 2.261 15.212 43.583 70.443 54.505 77.572 4.807 3.136 47.823 4.012 127.864 2.606 5.661-.1 9.72-.171 11.865-.187 5.026-7.666 2.057-19.099-1.405-27.477-13.686-33.117-59.176-77.16-95.27-82.38-29.759 2.945-74.277 14.2-97.498 28.008zm-1.028-1.716 1.021 1.72.001-.001zm0 0h.01z" fill="#25242e"/><path d="M341.792 417.674c-30.571 10.005-55.223 34.429-62.204 45.678-24.407 39.332-13.672 65.385 1.002 66.189 20.118 1.102 25.521-25.585 35.835-40.65 10.139-14.81 28.572-25.396 28.572-25.396" fill="#fff"/><path d="M281.787 531.574c-.43 0-.863-.012-1.306-.036-5.716-.313-10.787-3.933-13.913-9.931-2.729-5.237-9.976-24.99 11.32-59.31 8.107-13.063 33.825-36.885 63.281-46.524a1.993 1.993 0 0 1 2.522 1.278 1.998 1.998 0 0 1-1.278 2.522c-31.27 10.234-55.07 35.073-61.127 44.833-10.515 16.944-18.971 40.384-11.171 55.352 2.456 4.714 6.313 7.552 10.584 7.785 13.351.755 19.574-11.979 26.197-25.432 2.452-4.979 4.987-10.128 7.878-14.351 10.279-15.015 28.457-25.56 29.226-26.001a2 2 0 0 1 1.992 3.468c-.18.104-18.163 10.544-27.917 24.792-2.729 3.986-5.09 8.781-7.59 13.857-6.401 13.007-13.635 27.697-28.698 27.698z" fill="#25242e"/><path d="M326.647 442.754c-4.01 3.654-9.17 9.977-18.875 26.819-12.6 21.867-22.861 66.539 3.647 68.698 19.237 1.567 17.316-26.281 22.707-43.481 3.478-11.096 13.545-22.92 20.891-31.226" fill="#fff"/><path d="M312.983 540.337c-.559 0-1.132-.023-1.726-.072-6.985-.568-12.093-3.84-15.18-9.722-8.372-15.948.995-46.405 9.961-61.967 10.423-18.089 15.586-23.951 19.262-27.3a2 2 0 1 1 2.693 2.957c-3.447 3.141-8.34 8.727-18.489 26.339-8.86 15.379-17.226 44.129-9.886 58.111 2.443 4.653 6.356 7.138 11.963 7.595 11.592.934 14.395-10.098 17.367-27.047.903-5.146 1.836-10.467 3.27-15.038 3.358-10.714 12.223-21.688 21.302-31.953a2 2 0 1 1 2.996 2.65c-8.785 9.933-17.348 20.501-20.481 30.499-1.354 4.323-2.266 9.514-3.146 14.533-2.507 14.289-5.337 30.413-19.906 30.415z" fill="#25242e"/><path d="M299.445 533.842c-.58 0-1.155-.251-1.551-.735-6.8-8.337-5.767-22.168-3.703-32.304 2.627-12.898 7.837-25.095 11.837-32.209 6.445-11.463 12.714-20.363 19.162-27.21a2 2 0 1 1 2.912 2.742c-6.224 6.607-12.304 15.252-18.588 26.429-8.179 14.545-19.075 47.084-8.521 60.022a2 2 0 0 1-1.548 3.265z" fill="#25242e"/><path d="M354.497 447.055c-6.3 4.62-13.001 14.2-20.683 27.426-17.432 30.012-19.31 63.524.528 66.819 21.4 3.554 23.146-23.224 28.507-41.402 2.76-9.358 10.47-17.991 17.037-23.992" fill="#fff"/><path d="M338.182 543.634c-1.309 0-2.695-.116-4.167-.361-5.923-.983-10.463-4.495-13.127-10.155-6.278-13.335-1.778-37.303 11.197-59.642 8.723-15.017 15.27-23.663 21.229-28.033a2 2 0 1 1 2.365 3.225c-5.493 4.029-11.703 12.3-20.136 26.818-12.152 20.921-16.69 43.919-11.037 55.928 2.109 4.481 5.528 7.145 10.163 7.914a20.39 20.39 0 0 0 3.326.288c13.075.002 16.598-14.657 20.313-30.109.86-3.579 1.674-6.959 2.622-10.174 2.941-9.974 11.197-19.048 17.606-24.903a1.999 1.999 0 1 1 2.697 2.953c-6.032 5.513-13.787 13.992-16.468 23.081-.919 3.118-1.721 6.45-2.568 9.978-3.757 15.631-7.98 33.192-24.015 33.192z" fill="#25242e"/><path d="M326.594 539.213a1.996 1.996 0 0 1-1.446-.618c-11.487-12.02-8.903-36.349 6.915-65.079 3.861-7.015 11.407-18.018 21.003-27.857a1.999 1.999 0 1 1 2.863 2.793c-9.326 9.563-16.798 20.519-20.362 26.994-14.709 26.716-17.593 49.854-7.526 60.386a2.001 2.001 0 0 1-1.447 3.381z" fill="#25242e"/><path d="M383.258 453.959c-.88.784-16.393 13.414-26.041 38.543-14.794 38.531 3.057 47.496 10.209 48.574 15.331 2.313 20.585-14.034 26.984-35.382" fill="#fff"/><path d="M370.234 543.297c-.992 0-2.026-.079-3.105-.242-2.135-.322-9.457-1.986-14.049-9.873-5.447-9.356-4.684-23.284 2.271-41.396 8.768-22.832 22.449-35.772 26.434-39.195l.144-.124a1.999 1.999 0 1 1 2.662 2.986l-.199.173c-3.805 3.268-16.875 15.636-25.306 37.594-6.406 16.687-7.288 29.81-2.548 37.95 2.938 5.046 7.705 7.405 11.188 7.931 13.278 2 18.063-11.606 24.77-33.979a2 2 0 0 1 3.832 1.148c-5.7 19.007-11.101 37.027-26.094 37.027z" fill="#25242e"/><path d="M355.564 535.045c-.654 0-1.296-.32-1.679-.91-4.199-6.465-7.354-19.058 1.462-42.341 5.891-15.558 15.336-29.53 26.598-39.343a1.999 1.999 0 1 1 2.627 3.015c-10.772 9.388-19.823 22.792-25.484 37.743-8.222 21.717-5.543 33.057-1.849 38.745a2 2 0 0 1-1.675 3.091z" fill="#25242e"/><path d="M520.25 271.488c46.939 40.629 84.892 70.418 121.275 112.44 49.821 57.542 35.712 129.585-60.896 129.585-17.7 0-63.197.62-137.012.6 5.322.02 25.3-26.192 18.964-61.711-5.362-30.056-29.872-53.035-43.735-53.035l60.586-3.627-50.036-33.825" fill="#fff"/><path d="M447.045 516.112c-1.134 0-2.308.009-3.423 0h-.013a2 2 0 0 1 .008-4h.008c.58-.063 2.79-1.482 5.771-5.455 8.137-10.843 15.355-30.697 11.216-53.905-5.231-29.32-28.943-51.386-41.766-51.386a2 2 0 0 1-.119-3.996l54.701-3.275-45.153-30.523a2 2 0 0 1 2.24-3.314l50.036 33.825a2.001 2.001 0 0 1-1.001 3.654l-49.579 2.969c13.866 7.459 30.194 26.773 34.578 51.345 4.981 27.927-6.037 50.068-13.334 58.748a31.9 31.9 0 0 1-1.164 1.315c46.573-.011 81.214-.271 104.486-.447 11.804-.089 20.332-.153 26.091-.153 41.585 0 70.715-13.631 82.023-38.381 11.392-24.93 2.716-58.609-22.64-87.895-29.382-33.936-59.914-59.972-95.268-90.118-8.306-7.083-16.895-14.406-25.804-22.119a1.997 1.997 0 0 1-.203-2.82 1.996 1.996 0 0 1 2.82-.203c8.898 7.702 17.481 15.021 25.782 22.099 35.477 30.253 66.115 56.38 95.695 90.543 26.394 30.484 35.305 65.804 23.255 92.176-6.949 15.207-27.317 40.719-85.662 40.719-5.743 0-14.266.064-26.061.153-23.771.176-59.42.444-107.52.444z" fill="#25242e"/><path d="M479.43 397.739a2 2 0 0 1-.101-3.997l64.807-3.352c1.088-.069 2.044.791 2.101 1.894a2 2 0 0 1-1.894 2.101l-64.807 3.352-.106.002zm-170.666-45.311a2.001 2.001 0 0 1-1.953-1.568L283.67 246.094a2.001 2.001 0 0 1 3.906-.864l22.152 100.291 76.703-110.767a2 2 0 0 1 3.289 2.277l-79.312 114.534a1.999 1.999 0 0 1-1.644.863z" fill="#25242e"/><path d="m113.889 233.423 42.429-63.13c29.722-42.234 94.566-11.18 104.669 71.306l-52.278 73.61z" fill="#fff"/><path d="M208.708 317.209c-.477 0-.941-.171-1.307-.485l-94.819-81.786a2 2 0 0 1-.354-2.63l42.429-63.13c11.429-16.24 28.513-22.89 46.899-18.279 14.239 3.57 28.015 13.735 38.788 28.623 11.854 16.381 19.679 37.763 22.627 61.834a2 2 0 0 1-.354 1.401l-52.278 73.61a1.998 1.998 0 0 1-1.631.842zm-92.17-84.143 91.812 79.192 50.556-71.184c-4.733-36.986-24.523-77.823-58.321-86.297-16.69-4.185-32.231 1.888-42.631 16.666z" fill="#25242e"/><path d="M212.058 310.492c21.684-12.147 57.504-33.507 73.724-50.34 16.22-16.832-1.39-37.231-25.645-25.223s-45.255 24.834-48.079 26.582c-3.708-4.065-14.914-7.796-26.019-6.704" fill="#fff"/><path d="M212.061 312.492a2 2 0 0 1-.979-3.745c20.367-11.41 56.969-33.076 73.261-49.982 6.169-6.401 7.464-13.843 3.382-19.421-4.235-5.787-14.132-8.842-26.698-2.622-25.361 12.556-47.005 25.927-47.913 26.49a1.998 1.998 0 0 1-2.531-.353c-3.348-3.67-14.167-7.064-24.347-6.062a2 2 0 1 1-.391-3.981c10.854-1.076 21.591 2.232 26.462 6.196 5.153-3.142 24.623-14.826 46.944-25.876 14.646-7.252 26.476-3.296 31.701 3.844 5.228 7.143 3.765 16.783-3.729 24.559-16.649 17.277-53.627 39.179-74.187 50.697a1.98 1.98 0 0 1-.975.256z" fill="#25242e"/><path d="M238.38 218.393c25.731-34.647 40.551-31.01 48.395-25.407 16.182 11.559 1.821 37.999-6.475 48.126-13.149 16.051-26.504 14.659-31.79 9.851-8.094-7.363-10.305-20.83 6.42-42.807z" fill="#fff"/><path d="M257.904 256.197c-4.226 0-8.079-1.334-10.739-3.755-11.667-10.613-6.257-26.063.767-37.605l-8.5 5.257a2 2 0 0 1-2.657-2.894c20.089-27.049 37.301-35.744 51.163-25.841 4.539 3.243 7.223 7.763 7.977 13.435 1.847 13.894-8.395 30.661-14.067 37.586-8.729 10.655-17.025 13.365-22.447 13.763-.504.037-1.002.054-1.497.054zm-2.974-50.041a2 2 0 0 1 1.592 3.211c-13.586 17.852-15.892 31.724-6.666 40.116 2.132 1.939 5.592 2.944 9.25 2.67 4.642-.34 11.817-2.751 19.646-12.309 6.15-7.509 14.741-22.898 13.196-34.524-.603-4.53-2.734-8.133-6.337-10.707-10.21-7.292-23.146-1.894-38.535 16.048l6.802-4.207c.326-.2.69-.298 1.052-.298z" fill="#25242e"/><path d="M212.27 200.074c25.731-34.647 40.551-31.01 48.395-25.407 16.182 11.559 1.821 37.999-6.475 48.126-13.149 16.051-26.504 14.659-31.79 9.851-8.094-7.363-10.305-20.83 6.42-42.807z" fill="#fff"/><path d="M231.794 237.878c-4.226 0-8.079-1.334-10.74-3.755-11.667-10.612-6.257-26.062.767-37.605l-8.499 5.257a2 2 0 0 1-2.657-2.894c20.088-27.048 37.305-35.745 51.162-25.842 4.54 3.243 7.224 7.763 7.978 13.436 1.846 13.893-8.395 30.66-14.067 37.585-8.729 10.655-17.024 13.365-22.447 13.763a20.44 20.44 0 0 1-1.497.055zm-2.975-50.041a2 2 0 0 1 1.592 3.212c-13.587 17.852-15.893 31.724-6.667 40.116 2.133 1.94 5.587 2.937 9.252 2.67 4.641-.34 11.816-2.752 19.646-12.309 6.15-7.508 14.74-22.898 13.196-34.523-.603-4.531-2.734-8.134-6.337-10.708-10.211-7.293-23.148-1.891-38.534 16.047l6.801-4.206a2 2 0 0 1 1.051-.299z" fill="#25242e"/><path d="M183.91 184.622c25.731-34.647 40.551-31.01 48.395-25.407 16.182 11.559 1.821 37.999-6.475 48.126-13.149 16.051-26.504 14.659-31.79 9.851-8.094-7.363-10.305-20.83 6.42-42.807z" fill="#fff"/><path d="M203.436 222.427c-4.226 0-8.079-1.334-10.74-3.755-11.667-10.613-6.257-26.063.767-37.606l-8.5 5.257a2 2 0 0 1-2.657-2.893c20.087-27.048 37.298-35.746 51.163-25.842 4.539 3.243 7.223 7.763 7.977 13.435 1.847 13.893-8.395 30.661-14.067 37.586-8.728 10.654-17.023 13.365-22.446 13.763-.505.036-1.004.055-1.497.055zm-2.976-50.042a2 2 0 0 1 1.592 3.212c-13.587 17.852-15.892 31.724-6.666 40.116 2.133 1.94 5.604 2.931 9.251 2.67 4.642-.341 11.817-2.752 19.646-12.309 6.15-7.509 14.741-22.899 13.196-34.524-.603-4.531-2.734-8.133-6.337-10.707-10.211-7.292-23.148-1.891-38.534 16.048l6.801-4.207c.325-.201.69-.299 1.051-.299z" fill="#25242e"/><path d="M156.317 170.293c25.731-34.647 41.731-31.324 49.575-25.721 16.182 11.559 1.821 37.999-6.475 48.126-13.149 16.051-26.504 14.659-31.79 9.851-8.094-7.363-10.305-20.83 6.42-42.807" fill="#fff"/><path d="M177.022 207.783c-4.226 0-8.079-1.334-10.739-3.755-14.628-13.308-2.41-34.218 6.174-45.498a2 2 0 0 1 3.184 2.423c-13.587 17.852-15.892 31.724-6.666 40.116 2.133 1.939 5.596 2.934 9.25 2.67 4.642-.34 11.817-2.751 19.647-12.309 6.15-7.508 14.74-22.898 13.195-34.523-.602-4.532-2.734-8.134-6.337-10.708-11.975-8.556-28.163.185-46.807 25.286a1.999 1.999 0 1 1-3.211-2.385c25.486-34.315 42.529-33.166 52.343-26.156 4.539 3.243 7.224 7.764 7.977 13.436 1.847 13.894-8.394 30.66-14.066 37.585-8.729 10.656-17.026 13.366-22.449 13.763-.503.038-1.001.055-1.495.055z" fill="#25242e"/><path d="M255.888 152.438c-15.778-42.175-2.66-80.424 40.027-93.486 46.008-14.077 79.384 12.645 92.017 55.069 6.545-17.687 27.708-11.276 32.17 4.086 3.302 11.366-5.415 26.643-25.938 25.376-5.858 44.953-36.357 66.969-72.477 74.376-41.926 8.597-81.878-26.253-65.799-65.421z" fill="#fff"/><g fill="#25242e"><path d="M308.782 221.167c-18.513 0-36.256-7.75-47.545-21.379-11.284-13.625-13.997-30.853-7.492-47.379-8.414-22.954-8.354-45.094.184-62.417 7.702-15.626 22.019-27.021 41.401-32.952 20.174-6.173 39.332-4.88 55.402 3.738 16.806 9.012 30.038 25.938 37.61 47.969 3.25-4.944 8.195-7.586 13.998-7.37 8.773.314 17.051 7.116 19.683 16.172 1.836 6.321.343 13.33-3.993 18.749-4.923 6.152-12.761 9.412-22.133 9.254-3.052 20.787-11.543 37.824-25.256 50.66-12.392 11.6-28.728 19.542-48.553 23.607a66.306 66.306 0 0 1-13.306 1.348zm11.123-164.032c-7.463 0-15.276 1.242-23.405 3.729-18.301 5.6-31.781 16.283-38.983 30.896-8.136 16.506-8.049 37.807.245 59.977a2 2 0 0 1-.022 1.46c-6.297 15.337-3.898 31.389 6.579 44.039 13.051 15.756 35.406 23.083 56.968 18.663 28.791-5.903 64.462-23.304 70.896-72.675a2.008 2.008 0 0 1 2.106-1.738c8.89.545 16.211-2.182 20.619-7.688 3.523-4.404 4.748-10.062 3.274-15.133-2.163-7.447-8.886-13.037-15.983-13.292-5.665-.194-10.085 3.113-12.39 9.341a1.979 1.979 0 0 1-1.941 1.305 2.004 2.004 0 0 1-1.852-1.428c-6.937-23.294-20.139-41.154-37.174-50.289-8.906-4.776-18.584-7.167-28.937-7.167z"/><path d="M409.96 127.442a1.98 1.98 0 0 1-.871-.201l-13.949-6.756a2 2 0 1 1 1.744-3.599l13.949 6.756a2 2 0 0 1-.873 3.8z"/><path d="M399.988 130.343a2 2 0 0 1-1.788-2.894l6.834-13.68a2 2 0 0 1 3.579 1.788l-6.834 13.68a2 2 0 0 1-1.791 1.106zm-68.227-.284a1.997 1.997 0 0 1-1.743-1.018c-4.021-7.121-12.179-12.199-21.329-7.482a2.001 2.001 0 0 1-1.832-3.557c11.464-5.898 21.844.568 26.644 9.073a2 2 0 0 1-1.74 2.984z"/><path d="M311.538 129.527c2.051 7.371 6.323 12.621 9.54 11.726s4.163-7.597 2.112-14.968c-.977-3.512-2.459-6.543-4.09-8.657-.274-.355-8.236.637-8.355 1.236-.555 2.791-.33 6.627.793 10.663zm-28.154 11.325a1.998 1.998 0 0 1-1.743-1.017c-4.021-7.121-12.178-12.199-21.33-7.482a2 2 0 0 1-1.832-3.557c11.458-5.897 21.844.568 26.645 9.072a2 2 0 0 1-1.74 2.984z"/><path d="M263.16 140.32c2.051 7.371 6.323 12.621 9.54 11.726 3.218-.895 4.163-7.597 2.112-14.968-.977-3.512-2.459-6.543-4.09-8.657-.274-.355-8.236.637-8.355 1.236-.555 2.791-.33 6.627.793 10.663z"/></g><path d="M312.373 167.212c4.242-15.563-12.432-18.076-14.799-6.834-11.22-12.686-22.769 4.059-8.635 10.389-2.949 2.686-3.257 12.202 7.637 12.665 14.627.621 19.16-10.628 15.797-16.22z" fill="#dda6ff"/><path d="M288.939 172.767a2 2 0 0 1-.072-3.999l.395-.015c7.178-.261 26.246-.953 34.261-11.186a2 2 0 0 1 3.149 2.467c-9.16 11.696-28.854 12.411-37.264 12.716l-.394.014a.979.979 0 0 1-.075.003z" fill="#25242e"/><circle cx="361.384" cy="47.519" fill="#b153e0" r="47.507"/><circle cx="344.212" cy="69.503" fill="#25242e" r="33.86"/><path d="M346.355 103.532c7.075 17.556 29.399 22.262 41.577 10.489.746-13.563-8.909-44.799-32.295-58.38-28.2-16.376-78.138-11.389-93.404 15.851z" fill="#b153e0"/><path d="M268.688 64.143c-29.448 3.446-44.323 33.859-36.108 56.055l34.976-5.124c-.455-8.35 2.426-17.606 7.724-27.516.441 9.398 2.208 18.105 6.675 25.407l19.165-2.808c-1.039-5.288-1.69-11.286 1.362-17.42.52 4.85 2.668 12.565 6.273 16.302l49.903-7.31c-.772-15.91-6.448-38.581-24.007-45.504zm50.241-13.844c-.578 0-1.152-.25-1.548-.732-4.283-5.225-6.373-13.855-5.454-22.522.946-8.916 4.87-16.537 11.049-21.459a2 2 0 0 1 2.493 3.129c-5.335 4.25-8.73 10.91-9.562 18.752-.799 7.525.995 15.205 4.569 19.564a2.001 2.001 0 0 1-1.547 3.268z" fill="#b153e0"/><path d="M346.352 105.532a2 2 0 0 1-.288-3.979l10.452-1.531c-.438-4.723-2.026-17.633-6.847-26.656a2 2 0 1 1 3.527-1.885c6.391 11.961 7.417 29.402 7.458 30.139a2 2 0 0 1-1.707 2.089l-12.304 1.803a2.2 2.2 0 0 1-.291.02zm-26.96 274.723c-5.607 0-10.17-4.562-10.17-10.17s4.562-10.171 10.17-10.171 10.171 4.562 10.171 10.171c0 5.607-4.563 10.17-10.171 10.17zm0-16.341c-3.402 0-6.17 2.769-6.17 6.171s2.768 6.17 6.17 6.17 6.171-2.768 6.171-6.17-2.769-6.171-6.171-6.171zm119.622-68.755a2 2 0 0 1-1.794-2.878c.205-.423 21.182-42.086 67.512-33.959a2 2 0 1 1-.691 3.939c-18.146-3.179-34.277 1.155-47.939 12.897-10.28 8.835-15.24 18.782-15.289 18.882a2.004 2.004 0 0 1-1.799 1.119z" fill="#25242e"/></svg></g><g transform="translate(309.0 814.5) rotate(0.0 761.25 793.5) scale(1.511578842860334 1.5105510132208908)"><svg width="1007.225" height="1050.61" viewBox="0 0 1007.225 1050.61"><path d="M879.578 875.316c4.006 52.352 10.438 89.99 10.438 89.99s-133.882 69.91-125.578 8.286c-8.386-26.712-26.018-94.262-35.058-125.4-15.257-52.552 143.564-59.582 150.198 27.124z" fill="#fff"/><path d="M788.89 1000.988c-8.054 0-14.331-1.564-18.796-4.696-6.415-4.501-9.003-12.077-7.695-22.521-4.934-15.783-12.875-44.916-20.558-73.101-5.472-20.075-10.641-39.037-14.381-51.92-2.861-9.854-.179-18.873 7.756-26.081 19.158-17.404 64.347-20.573 98.673-6.923 28.69 11.409 45.625 32.511 47.684 59.418 3.952 51.646 10.352 89.429 10.416 89.805a1.999 1.999 0 0 1-1.046 2.109c-.231.121-23.437 12.191-49.611 21.804-21.965 8.065-39.497 12.106-52.442 12.106zm-1.092-189.629c-20.53 0-39.594 4.915-49.893 14.271-6.822 6.197-9.044 13.601-6.604 22.005 3.749 12.915 8.922 31.892 14.398 51.983 7.741 28.399 15.746 57.766 20.646 73.376.088.279.113.575.074.866-1.24 9.201.712 15.468 5.97 19.156 10.354 7.264 33.704 4.539 67.526-7.877 22.441-8.238 42.69-18.307 47.889-20.948-1.207-7.424-6.69-42.567-10.222-88.723-1.937-25.302-17.979-45.191-45.173-56.006-13.741-5.464-29.569-8.103-44.611-8.103z" fill="#25242e"/><path d="M556.128 894.981c-34.26 39.787-60.376 74.267-60.376 74.267s-142.527-49.979-91.86-86.024c13.909-25.851 53.333-83.369 71.315-111.995 29.245-46.553 136.714 58.957 80.921 123.752z" fill="#fff"/><path d="M495.752 971.247c-.222 0-.444-.036-.662-.112-4.049-1.42-99.221-35.155-103.906-68.271-1.097-7.754 2.66-14.816 11.167-20.995 9.288-17.154 29.343-47.659 47.053-74.596 9.237-14.051 17.963-27.322 24.11-37.107 5.662-9.014 14.45-13.272 25.438-12.311 24.527 2.146 55.139 30.095 68.238 62.301 11.587 28.488 8.197 55.525-9.546 76.13-33.823 39.279-60.036 73.825-60.297 74.17a2.005 2.005 0 0 1-1.595.791zm.174-209.527c-8.221 0-14.612 3.548-19.025 10.572-6.169 9.821-14.905 23.109-24.155 37.178-17.806 27.084-37.987 57.78-47.093 74.701a2.005 2.005 0 0 1-.602.683c-7.565 5.382-10.807 11.09-9.907 17.449 1.771 12.521 19.716 27.708 51.894 43.919 21.344 10.753 42.524 18.655 48.013 20.648 4.876-6.376 29.153-37.88 59.562-73.194 16.714-19.411 19.865-44.985 8.872-72.014-12.592-30.957-41.697-57.794-64.882-59.823a31.053 31.053 0 0 0-2.677-.119zm60.202 133.26h.01z" fill="#25242e"/><path d="m895.426 951.599 3.627 16.498s51.561 19.741 60.482 23.058c25.661 9.542 36.425 17.033 36.427 38.032l-67.689.017-175.379-.133c-.549-20.872 1.122-40.668 8.125-57.883 0 0-6.131-8.077-10.961-14.076-5.856-7.275 6.776-16.278 12.804-5.748a2630.77 2630.77 0 0 1 5.771 10.151c2.282 4.032 6.163 6.938 10.716 8.032l28.64 6.878a48.838 48.838 0 0 0 27.521-1.387l32.443-11.354-2.337-9.017c-1.481-5.714 2.663-11.352 8.636-11.749l8.684-.577c5.918-.395 11.234 3.546 12.49 9.258z" fill="#fff"/><path d="m928.273 1031.204-175.381-.133a2 2 0 0 1-1.997-1.947c-.632-24.018 1.863-42.373 7.847-57.625-1.733-2.271-6.424-8.39-10.241-13.133-2.059-2.557-2.518-5.632-1.259-8.436 1.365-3.04 4.579-5.195 7.997-5.363 3.726-.165 7.143 1.932 9.358 5.804 1.779 3.106 3.966 6.959 5.776 10.159 2 3.533 5.441 6.111 9.442 7.072l28.64 6.878a46.715 46.715 0 0 0 26.393-1.331l30.707-10.747-1.876-7.235a11.304 11.304 0 0 1 1.791-9.477c2.022-2.8 5.175-4.538 8.648-4.77l8.684-.577c6.844-.463 13.12 4.198 14.577 10.825l3.396 15.445c7.253 2.776 51.336 19.646 59.457 22.666 26.089 9.7 37.728 17.765 37.729 39.907a2 2 0 0 1-2 2zm-173.424-4.131 173.426.131 65.652-.017c-.628-18.092-10.072-24.856-35.09-34.157-8.828-3.283-59.983-22.868-60.499-23.065a1.998 1.998 0 0 1-1.238-1.438l-3.627-16.498c-1.036-4.71-5.495-8.029-10.405-7.693l-8.684.577a7.586 7.586 0 0 0-5.671 3.12 7.309 7.309 0 0 0-1.161 6.131l2.337 9.018a2.001 2.001 0 0 1-1.275 2.39l-32.443 11.354a50.709 50.709 0 0 1-28.648 1.444l-28.64-6.878c-5.075-1.219-9.445-4.496-11.989-8.99a2703.477 2703.477 0 0 0-5.767-10.143c-1.464-2.556-3.453-3.906-5.692-3.796-1.923.095-3.791 1.331-4.543 3.007-.446.992-.682 2.542.725 4.289 4.792 5.952 10.935 14.04 10.996 14.121.428.562.526 1.309.26 1.963-5.911 14.525-8.47 32.084-8.024 55.13z" fill="#25242e"/><path d="M790.478 1017.787c-5.406 0-10.491-2.075-14.318-5.844-3.837-3.777-5.95-8.803-5.951-14.151v.001c-.002-5.349 2.109-10.375 5.944-14.154 3.826-3.772 8.913-5.85 14.321-5.852h.007c5.406 0 10.491 2.075 14.318 5.844 3.837 3.777 5.95 8.804 5.951 14.151.002 5.348-2.109 10.374-5.944 14.153-3.826 3.772-8.913 5.85-14.321 5.852h-.007zm.003-36h-.005c-4.353.001-8.441 1.67-11.516 4.7-3.065 3.021-4.753 7.036-4.752 11.304v.001c.001 4.268 1.69 8.281 4.758 11.302 3.073 3.026 7.162 4.693 11.512 4.693h.005c4.353-.001 8.441-1.67 11.516-4.7 3.065-3.021 4.753-7.036 4.752-11.304-.001-4.269-1.69-8.282-4.758-11.302-3.075-3.027-7.163-4.694-11.512-4.694z" fill="#25242e"/><path d="m995.378 1048.593-67.101.017-173.785-.017c-5.423-.422-9.471-5.095-9.042-10.437.429-5.342 5.172-9.33 10.594-8.908l172.81-.044 66.519-.017c5.439-.001 9.85 4.342 9.851 9.7.002 5.359-4.406 9.704-9.846 9.706z" fill="#fff"/><path d="m928.279 1050.609-173.786-.017c-.052 0-.104-.002-.155-.006a11.817 11.817 0 0 1-8.129-4.124c-2.023-2.37-3-5.377-2.752-8.467.513-6.404 6.202-11.198 12.662-10.748l239.254-.061h.005c6.531 0 11.846 5.247 11.848 11.699.001 3.132-1.235 6.075-3.479 8.287a11.85 11.85 0 0 1-8.367 3.419h.001zm-173.705-4.016 173.703.017 67.1-.017h.001a7.87 7.87 0 0 0 5.56-2.268 7.584 7.584 0 0 0 2.287-5.438c-.002-4.246-3.521-7.7-7.848-7.7h-.003l-239.329.061c-.053 0-.104-.002-.156-.006-4.321-.338-8.105 2.836-8.446 7.074a7.564 7.564 0 0 0 1.808 5.55 7.835 7.835 0 0 0 5.323 2.727zm178.832-47.277c-.994 0-1.997-.082-3.003-.25l-59.467-9.975c-9.422-1.581-16.789-8.386-20.744-19.161a2.001 2.001 0 0 1 3.755-1.379c3.438 9.369 9.707 15.263 17.65 16.595l59.467 9.975c6.575 1.104 13.091-2.551 15.478-8.69a2.001 2.001 0 0 1 3.729 1.449c-2.703 6.957-9.51 11.436-16.865 11.436z" fill="#25242e"/><path d="M294.429 482.479c-16.457 89.578 8.969 196.754 140.831 196.754h256.999c5.424 59.286 4.702 147.788 9.917 206.003.845 9.428 29.309 24.086 43.243 28.441l139.884-16.874c4.906-7.041 15.022-13.136 14.024-26.141-5.958-77.655-29.049-170.721-35.345-218.095-12.697-95.549-46.26-150.311-132.497-161.61s-286.006-7.283-286.006-7.283-134.592-90.772-151.05-1.195z" fill="#b153e0"/><path d="M780.269 911.322a1.99 1.99 0 0 1-1.448-.621c-1.687-1.771-3.999-3.865-6.448-6.081-8.506-7.699-19.092-17.281-19.9-27.295-2.042-25.276-3.438-51.001-4.789-75.878-2.562-47.192-5.212-95.991-12.374-143.316-3.761-24.856-24.751-42.897-49.91-42.897H547.613a2 2 0 0 1 0-4h137.785a54.533 54.533 0 0 1 35.521 13.163 54.454 54.454 0 0 1 18.345 33.137c7.19 47.514 9.846 96.41 12.413 143.696 1.349 24.852 2.744 50.55 4.781 75.773.682 8.434 10.616 17.426 18.599 24.651 2.505 2.268 4.872 4.41 6.66 6.289a2 2 0 0 1-1.448 3.379z" fill="#25242e"/><path d="m745.418 913.677 139.884-16.873 5.785 20.707-145.669 16.851z" fill="#b153e0"/><path d="M745.415 915.678a2 2 0 0 1-1.982-1.761 1.999 1.999 0 0 1 1.746-2.225l139.884-16.874a1.999 1.999 0 1 1 .479 3.971l-139.884 16.874c-.082.01-.163.015-.243.015z" fill="#25242e"/><path d="M224.663 425.73c-70.874 104.693-31.265 253.504 100.597 253.504 108.389 0 132.161-.021 188.529-.002-18.763 27.234-52.494 72.756-77.115 104.817-6.331 8.245-8.046 37.836-5.356 50.32l119.127 76.662s47.645-1.71 55.245-14.227c20.732-34.149 81.342-160.325 109.242-217.946 44.985-92.903-6.911-179.543-93.148-190.842s-286.306-4.341-286.306-4.341S275.72 350.31 224.663 425.73z" fill="#b153e0"/><path d="m431.319 834.368-14.274 13.062 126.644 78.703 6.757-15.103z" fill="#b153e0"/><path d="M550.444 913.03c-.371 0-.745-.103-1.08-.318L430.237 836.05a2 2 0 0 1 2.164-3.364l119.127 76.662a2 2 0 0 1-1.084 3.682z" fill="#25242e"/><path d="m523.996 1025.789-165.926-92.14c10.259-23.818 20.055-32.989 37.024-47.866 0 0-2.332-11.084-3.21-15.721-1.647-8.699 14.175-11.424 13.984 1.195-.05 3.29.326 11.836.326 11.836a19.97 19.97 0 0 0 6.99 14.634l25.789 22.035a29.978 29.978 0 0 0 14.423 6.758l38.348 6.553 13.84-11.4a9.893 9.893 0 0 1 12.778.168l7.811 6.787c4.753 4.129 4.49 11.589-.542 15.374l-5.421 4.077s24.7 28.775 37.73 44.401a14.06 14.06 0 0 0 6.023 4.228c13.551 4.893 30.629 13.547 28.137 33.872l-38.011.076-11.464-.022a38.52 38.52 0 0 1-18.629-4.845z" fill="#fff"/><path d="m554.093 1032.655-11.473-.021a40.614 40.614 0 0 1-19.595-5.097L357.1 935.397a2 2 0 0 1-.866-2.539c10.185-23.646 19.674-32.886 36.664-47.808-.62-2.961-2.273-10.895-2.978-14.616-.592-3.125.516-6.003 3.039-7.895 2.834-2.123 6.822-2.489 9.922-.91 1.902.97 5.08 3.514 4.987 9.658-.049 3.193.32 11.632.324 11.717a18.023 18.023 0 0 0 6.291 13.201l25.788 22.035a27.991 27.991 0 0 0 13.462 6.308l37.445 6.398 13.134-10.818a11.86 11.86 0 0 1 15.361.202l7.811 6.787c2.724 2.365 4.213 5.79 4.086 9.396s-1.854 6.918-4.737 9.087l-3.716 2.794c5.402 6.302 25.241 29.471 36.359 42.804a12.074 12.074 0 0 0 5.165 3.628c13.919 5.025 32.114 14.224 29.443 35.996a2 2 0 0 1-1.981 1.757zm-193.462-99.872 164.336 91.258a36.624 36.624 0 0 0 17.661 4.593l11.465.021 36.188-.072c1.151-17.481-13.733-25.206-26.996-29.995a16.072 16.072 0 0 1-6.88-4.828c-12.872-15.436-37.464-44.092-37.711-44.379a2.004 2.004 0 0 1 .315-2.902l5.42-4.076a7.858 7.858 0 0 0 3.144-6.03 7.852 7.852 0 0 0-2.711-6.235l-7.811-6.787a7.871 7.871 0 0 0-10.195-.134l-13.84 11.4a2.01 2.01 0 0 1-1.608.428l-38.348-6.553a31.997 31.997 0 0 1-15.387-7.21l-25.787-22.035a21.996 21.996 0 0 1-7.69-16.1c-.015-.318-.377-8.608-.327-11.92.046-2.989-.924-5.076-2.804-6.034-1.745-.89-4.091-.663-5.706.547-.901.676-1.895 1.91-1.509 3.95.863 4.563 3.179 15.57 3.202 15.681a2.004 2.004 0 0 1-.639 1.916c-16.686 14.629-26.031 23.463-35.782 45.496z" fill="#25242e"/><path d="m352.856 952.454 159.201 91.053a38.52 38.52 0 0 0 19.137 5.083l57.871-.016a9 9 0 0 0 9.017-8.983 9 9 0 0 0-8.983-9.017l-46.405.034a38.513 38.513 0 0 1-18.755-4.858L361.52 935.403c-4.863-2.471-10.804-.381-13.048 4.591a9.563 9.563 0 0 0 4.384 12.46z" fill="#fff"/><path d="M531.183 1050.59a40.585 40.585 0 0 1-20.118-5.347l-159.16-91.029a11.548 11.548 0 0 1-5.256-15.044c1.313-2.907 3.694-5.091 6.703-6.149s6.231-.846 9.075.599l162.485 90.383a36.594 36.594 0 0 0 17.754 4.605h.026l46.406-.034a10.932 10.932 0 0 1 7.777 3.237c2.074 2.081 3.213 4.846 3.207 7.784s-1.155 5.698-3.237 7.771a10.878 10.878 0 0 1-7.783 3.207l-57.867.017h-.012zM357.217 936.356a7.63 7.63 0 0 0-2.537.438 7.503 7.503 0 0 0-4.386 4.022 7.551 7.551 0 0 0 3.468 9.854c.03.015.059.03.088.047l159.201 91.053a36.577 36.577 0 0 0 18.133 4.819h.01l57.872-.017h.015a6.96 6.96 0 0 0 4.943-2.04c1.324-1.32 2.056-3.076 2.06-4.946s-.721-3.629-2.041-4.954a6.958 6.958 0 0 0-4.946-2.06l-46.399.034h-.03a40.632 40.632 0 0 1-19.699-5.109L360.548 937.15a7.353 7.353 0 0 0-3.331-.794zm50.272 8.888c-6.539 0-12.953-3.195-16.784-9.069-6.023-9.238-3.408-21.654 5.829-27.678 9.237-6.021 21.654-3.408 27.678 5.829 6.023 9.238 3.408 21.654-5.829 27.678a19.893 19.893 0 0 1-10.894 3.24zm-.063-35.999c-3.068 0-6.075.888-8.706 2.604a15.896 15.896 0 0 0-6.918 10.104 15.894 15.894 0 0 0 2.255 12.036 15.896 15.896 0 0 0 10.104 6.918c4.184.881 8.456.079 12.036-2.255s6.037-5.923 6.918-10.104c.88-4.182.08-8.457-2.255-12.036a15.896 15.896 0 0 0-10.104-6.918 16.107 16.107 0 0 0-3.33-.349zm135.096 84.786a18.187 18.187 0 0 1-10.38-3.241l-49.539-34.378c-7.848-5.447-11.61-14.744-10.594-26.177a1.996 1.996 0 0 1 2.169-1.815 2 2 0 0 1 1.815 2.169c-.884 9.94 2.273 17.944 8.891 22.537l49.538 34.377c5.482 3.806 12.93 3.275 17.706-1.262a2 2 0 1 1 2.754 2.9c-3.406 3.236-7.865 4.89-12.36 4.89zM464.12 857.517a2 2 0 0 1-1.692-3.064c.51-1.258 1.322-8.191 2.041-14.317 1.557-13.28 3.494-29.809 6.587-36.137 8.218-16.819 29.814-43.222 52.68-71.175 23.272-28.451 47.338-57.872 62.371-82.76 4.352-7.204 4.478-15.88.338-23.208-4.136-7.32-11.622-11.688-20.027-11.688h-.027l-208.942.23h-.112a103.025 103.025 0 0 1-101.972-88.338l-13.2-91.664a2.001 2.001 0 0 1 1.694-2.265 2.005 2.005 0 0 1 2.265 1.694l13.2 91.664a99.032 99.032 0 0 0 33.215 60.765 99.043 99.043 0 0 0 64.798 24.144h.108l208.942-.23h.031c9.868 0 18.655 5.128 23.51 13.722 4.86 8.602 4.712 18.786-.396 27.243-15.18 25.132-39.337 54.664-62.699 83.225-22.713 27.768-44.167 53.995-52.182 70.397-2.793 5.716-4.767 22.553-6.208 34.847-1.383 11.789-1.829 14.91-2.712 16.104a2 2 0 0 1-1.611.811zm-1.606-3.19-.002.004.002-.004z" fill="#25242e"/><path d="m468.056 449.214 20.97 35.088-299.109 47.27 28.746-105.842z" fill="#56b1f0"/><path d="M694.955 721.585a2 2 0 0 1-1.791-2.887c8.084-16.345 14.802-30.042 19.969-40.713 10.873-22.456 16.375-45.134 16.353-67.403-.022-20.921-4.871-40.495-14.414-58.181-18.503-34.293-52.6-57.038-93.547-62.402-85.085-11.148-283.977-4.395-285.977-4.325a1.985 1.985 0 0 1-2.068-1.93 2 2 0 0 1 1.93-2.068c2.001-.07 201.222-6.834 286.635 4.356 42.237 5.534 77.428 29.032 96.548 64.47 9.86 18.274 14.871 38.486 14.894 60.075.023 22.88-5.613 46.146-16.753 69.152-5.171 10.68-11.895 24.388-19.982 40.742a2.003 2.003 0 0 1-1.797 1.114z" fill="#25242e"/><path d="m698.048 200.929-61.412 84.837-94.058-72.37c-14.13-7.237-197.549-4.892-122.839 85.483 37.413 32.414 54.265 46.08 122.668 95.997 50.531 36.875 122.891 76.061 178.448-2.668 26.172-37.088 66.175-97.816 80.978-119.29 18.532-27.802-90.868-91.534-103.785-71.989z" fill="#fff"/><path d="M643.744 439.904c-38.208.003-76.193-24.206-102.515-43.414-67.899-49.549-84.911-63.276-122.799-96.101a1.988 1.988 0 0 1-.231-.237c-19.929-24.106-23.623-44.31-10.981-60.05 27.593-34.354 125.458-34.026 136.273-28.487.108.056.211.121.308.195l92.426 71.114 60.18-83.137c2.239-3.352 6.589-4.854 12.906-4.461 25.476 1.574 81.243 34.731 93.888 60.216 3.573 7.202 3.675 13.42.3 18.483-5.303 7.693-13.857 20.448-23.762 35.218-18.008 26.852-40.418 60.27-57.246 84.116-18.413 26.094-40.262 41.381-64.938 45.438a84.896 84.896 0 0 1-13.809 1.107zM421.176 297.476c37.7 32.659 54.708 46.377 122.411 95.784 60.368 44.053 93.581 44.837 113.317 41.591 23.578-3.876 44.545-18.611 62.318-43.797 16.8-23.808 39.196-57.204 57.191-84.038 9.912-14.781 18.473-27.546 23.773-35.234 2.506-3.76 2.319-8.634-.572-14.461-5.49-11.066-20.703-25.107-40.693-37.56-18.794-11.708-38.364-19.731-49.857-20.442-3.308-.206-7.622.1-9.348 2.712a1.748 1.748 0 0 1-.049.07l-61.411 84.837a1.997 1.997 0 0 1-2.84.412l-93.896-72.246c-9.487-4.346-104.836-5.305-131.184 27.502-11.266 14.028-7.618 32.488 10.84 54.87zm276.872-96.547h.01z" fill="#25242e"/><path d="M617.654 313.349a2 2 0 0 1-1.604-3.193l18.981-25.583a2 2 0 0 1 3.213 2.384l-18.981 25.583a2.004 2.004 0 0 1-1.609.809z" fill="#25242e"/><path d="M801.834 272.917c14.822-21.834 25.635-38.754 25.635-38.754l30.292-12.65s7.265-73.097-5.62-88.758c-13.656-16.599-100.653-8.376-123.102 21.28l-30.991 46.894" fill="#fff"/><path d="M801.832 274.917a2 2 0 0 1-1.652-3.123c14.635-21.558 25.496-38.539 25.604-38.708.22-.343.539-.611.915-.769l29.185-12.187c.396-4.364 1.729-20.164 1.901-37.17.331-32.822-3.726-44.727-7.188-48.935-4.266-5.186-17.609-8.066-35.721-7.696-30.671.621-70.583 10.947-84.204 28.863l-30.955 46.839a2 2 0 0 1-3.337-2.205l30.991-46.894c.023-.036.049-.071.074-.104 14.499-19.154 54.918-29.841 87.351-30.498 19.623-.401 33.779 2.94 38.892 9.154 5.65 6.869 8.375 24.21 8.097 51.543-.204 20.088-2.013 38.5-2.031 38.683a2 2 0 0 1-1.22 1.648l-29.717 12.409c-1.949 3.036-12.102 18.791-25.327 38.272a2 2 0 0 1-1.658.878z" fill="#25242e"/><path d="M722.457 163.995s16.271-28.206 42.653-39.075c18.356-7.562 39.293-14.768 70.238-17.173 35.018-2.721 41.822 29.024 11.438 37.802-7.322 2.115-18.506 5.847-31.382 8.829" fill="#fff"/><path d="M722.455 165.996a2 2 0 0 1-1.73-3c.679-1.176 16.919-28.923 43.624-39.925 18.354-7.562 39.639-14.893 70.844-17.318 20.083-1.555 30.844 7.576 32.611 17.322 2.2 12.133-8.691 20.995-20.463 24.396-1.883.544-4.022 1.196-6.382 1.914-6.9 2.101-15.487 4.715-25.103 6.942a2 2 0 0 1-.902-3.896c9.482-2.196 17.998-4.789 24.84-6.872a483.55 483.55 0 0 1 6.438-1.93c10.043-2.901 19.392-10.161 17.637-19.839-1.447-7.978-10.786-15.414-28.365-14.047-30.652 2.382-51.58 9.592-69.631 17.028-25.457 10.488-41.523 37.949-41.683 38.226a2.004 2.004 0 0 1-1.735.999z" fill="#25242e"/><path d="M794.091 138.335s97.094-10.589 110.19-8.798c25.405 3.475 26.32 28.734.676 37.72-11.859 4.155-61.046 12.711-77.488 15.51" fill="#fff"/><path d="M827.467 184.768a2 2 0 0 1-.334-3.972c15.12-2.574 65.368-11.293 77.163-15.426 11.394-3.992 18.227-11.812 17.409-19.922-.727-7.198-7.507-12.535-17.695-13.929-12.711-1.739-108.733 8.699-109.702 8.805-1.09.11-2.087-.673-2.205-1.771a2 2 0 0 1 1.771-2.205c3.975-.434 97.491-10.597 110.679-8.791 12.113 1.657 20.211 8.359 21.132 17.491.767 7.604-4.028 18.479-20.066 24.099-11.76 4.121-58.335 12.278-77.813 15.594a2.321 2.321 0 0 1-.339.027z" fill="#25242e"/><path d="M825.254 196.836c22.573-2.943 71.866-9.608 85.747-13.433 39.029-10.753 20.691-37.888-2.747-37.567-22.145.304-88.437 9.982-88.437 9.982" fill="#fff"/><path d="M825.251 198.836a2 2 0 0 1-.255-3.983c21.072-2.747 71.583-9.55 85.475-13.378 14.526-4.002 22.224-10.751 21.119-18.517-1.175-8.261-11.626-15.125-22.925-15.125-.128 0-.255.001-.383.003-21.761.298-87.515 9.864-88.176 9.96a2.007 2.007 0 0 1-2.269-1.69 2.001 2.001 0 0 1 1.69-2.268c2.712-.396 66.676-9.7 88.699-10.002a30 30 0 0 1 .425-.003c13.193 0 25.456 8.427 26.897 18.561.672 4.722-.324 16.409-24.017 22.937-14.135 3.895-64.865 10.73-86.02 13.488a1.882 1.882 0 0 1-.26.017z" fill="#25242e"/><path d="M820.365 176.925c15.515-2.099 67.02-8.99 80.059-9.731 38.131-2.165 39.776 33.684-.782 39.16-12.807 1.729-50.912 6.713-72.172 9.49" fill="#fff"/><path d="M827.466 217.843a1.999 1.999 0 0 1-.255-3.983c21.469-2.803 59.393-7.764 72.163-9.488 14.799-1.998 29.209-9.985 28.117-21.386-.727-7.586-9.33-14.792-26.953-13.795-12.962.736-64.437 7.623-79.904 9.716a2 2 0 1 1-.537-3.964c15.504-2.098 67.108-9.002 80.215-9.746 20.268-1.152 30.253 7.914 31.161 17.407.978 10.208-8.482 22.615-31.563 25.731-12.777 1.725-50.708 6.687-72.181 9.491a1.957 1.957 0 0 1-.263.017z" fill="#25242e"/><path d="M819.775 197.13c14.711-2.282 51.072-7.591 70.366-7.495 24.563.122 31.284 26.753-6.707 35.199-8.228 1.829-79.576 12.899-91.021 14.358" fill="#fff"/><path d="M792.411 241.193a2 2 0 0 1-.25-3.984c11.327-1.444 82.754-12.529 90.84-14.327 19.689-4.378 25.876-13.384 25.191-19.767-.72-6.71-8.146-11.431-18.061-11.48l-.519-.001c-19.264 0-54.975 5.214-69.531 7.473a2.008 2.008 0 0 1-2.283-1.67 2 2 0 0 1 1.67-2.283c14.782-2.293 51.282-7.592 70.683-7.518 12.02.06 21.073 6.25 22.019 15.053.901 8.408-6.06 19.153-28.302 24.098-8.136 1.809-79.84 12.941-91.201 14.39a2.011 2.011 0 0 1-.256.016zm-29.007-59.308a2 2 0 0 1-1.203-3.6c10.27-7.702 19.567-25.323 19.659-25.5a2 2 0 1 1 3.545 1.854c-.396.755-9.806 18.596-20.804 26.845-.36.271-.781.401-1.197.401zm-291.104.883c28.831 3.147 80.024 29.757 138.61 83.203L529.249 409.57s-95.078-78.563-113.125-94.621-14.205-139.863 56.176-132.181z" fill="#25242e"/><path d="M529.249 411.57c-.461 0-.913-.159-1.274-.458-.95-.786-95.312-78.77-113.18-94.669-5.938-5.283-9.697-20.583-9.812-39.93-.124-20.887 3.98-42.27 11.262-58.664 15.128-34.064 38.948-38.959 56.271-37.07 26.345 2.875 76.89 26.377 139.741 83.714a2 2 0 0 1 .391 2.466l-81.661 143.599a2 2 0 0 1-1.738 1.012zm-63.067-227.143c-25.204 0-39.021 18.695-46.281 35.046-15.483 34.865-12.79 84.779-2.447 93.982 16.429 14.618 97.916 82.043 111.234 93.057l79.693-140.139c-61.588-55.906-110.744-78.828-136.298-81.617a54.352 54.352 0 0 0-5.901-.329z" fill="#25242e"/><path d="M471.036 268.096c2.198 8.671 24.212 128.769 19.191 168.731-.705 5.614 9.887 14.004 11.518 26.548 1.651 12.699-1.256 16.814-1.256 16.814L323.117 530.7l-121.04 69.251c-17.728-12.134-36.496-30.028-33.846-46.396 3.582-22.129 14.609-31.867 14.33-41.343-.063-2.159 3.46-79.156-.215-101.648-9.885-30.833-63.014-123.635-49.637-157.067 35.157-34.867 76.697-43.118 109.759-50.484 27.582-6.146 110.381-19.053 139.982-22.698 17.615-2.169 51.276-4.304 89.85 2.453" fill="#25242e"/><path d="M202.077 601.951c-.396 0-.79-.117-1.13-.35-14.296-9.785-37.812-29.08-34.69-48.365 2.019-12.474 6.296-21.007 9.733-27.862 2.616-5.22 4.683-9.343 4.572-13.104-.011-.37.037-1.764.178-5.737.672-18.93 2.712-76.436-.345-95.5-2.713-8.4-8.695-21.545-15.617-36.753-18.54-40.734-43.931-96.522-33.926-121.526a2.01 2.01 0 0 1 .448-.677c34.36-34.078 74.804-43.047 107.3-50.254l3.433-.762c27.227-6.066 109.605-18.967 140.173-22.73 16.744-2.062 50.76-4.483 90.438 2.467a2 2 0 0 1-.689 3.94c-39.172-6.862-72.739-4.474-89.261-2.438-30.498 3.755-112.659 16.62-139.792 22.665l-3.436.763c-31.897 7.074-71.573 15.874-105.049 48.892-8.953 23.626 15.858 78.141 34.001 118.003 7.013 15.408 13.069 28.715 15.831 37.331.03.094.054.19.069.288 3.155 19.306 1.096 77.356.419 96.433-.103 2.883-.184 5.16-.178 5.483.141 4.764-2.126 9.284-4.995 15.008-3.314 6.612-7.439 14.841-9.359 26.709-2.786 17.204 20.628 35.812 31.971 43.715l119.947-68.626c.141-.08.29-.143.445-.188l176.535-50.272c.57-1.408 1.84-5.769.656-14.871-.838-6.45-4.336-11.926-7.146-16.325-2.671-4.182-4.781-7.483-4.373-10.729 4.896-38.959-16.693-158.321-19.145-167.991a2 2 0 0 1 3.877-.983c2.569 10.133 24.3 129.18 19.236 169.472-.228 1.812 1.717 4.855 3.774 8.078 3.024 4.734 6.789 10.628 7.742 17.963 1.703 13.094-1.261 17.738-1.604 18.225a2.001 2.001 0 0 1-1.086.771L323.9 532.557l-120.83 69.13a2.001 2.001 0 0 1-.993.264z" fill="#25242e"/><path d="M250.669 203.191c5.753 26.222 37.375 58.098 90.195 43.101 42.175-11.974 48.713-45.063 33.202-62.928-6.384-7.338-18.517-6.507-20.312.817 13.014 10.21 15.005 36.798-18.655 46.355-40.263 11.432-61.413-17.115-64.946-32.389-1.693-7.558-21.462-3.788-19.484 5.044z" fill="#25242e"/><path d="M314.762 252.144c-16.349 0-28.637-4.819-36.978-9.809-14.828-8.87-25.695-23.343-29.068-38.714-1.106-4.957 2.961-9.502 9.892-11.054 5.848-1.309 12.353.039 13.496 5.142 1.949 8.424 9.229 20.074 21.092 27.079 11.812 6.974 25.725 8.261 41.356 3.823 14.49-4.114 23.567-11.954 25.559-22.076 1.512-7.682-1.539-16.034-7.592-20.782a1.999 1.999 0 0 1-.708-2.05c.861-3.514 3.64-6.083 7.622-7.048 5.659-1.372 12.143.798 16.142 5.395 7.567 8.716 10.059 20.716 6.666 32.102-4.647 15.6-19.529 28.015-40.83 34.062-9.844 2.797-18.725 3.93-26.649 3.93zm-51.981-56.041c-1.081 0-2.216.126-3.3.369-3.792.849-7.556 3.177-6.86 6.282l.001.008c3.141 14.315 13.314 27.826 27.216 36.141 11.704 7.002 31.699 13.636 60.48 5.465 19.956-5.667 33.84-17.096 38.089-31.357 3-10.068.812-20.661-5.852-28.336-3.498-4.019-8.768-4.96-12.181-4.131-1.242.301-3.273 1.074-4.266 3 6.556 5.823 9.653 14.988 7.926 23.765-1.33 6.761-6.787 19.018-28.392 25.151-16.486 4.682-31.87 3.221-44.481-4.227-12.884-7.607-20.814-20.366-22.959-29.636-.382-1.714-2.734-2.494-5.421-2.494zm82.543 250.16c-16.646-12.265-52.601-21.617-93.019-30.577-51.014-1.232-121.825 77.005-102.732 104.184 9.947.292 33.984 2.474 37.409 2.691 32.138 2.036 66.77 1.154 94.842-.856 14.882-1.065 72.182-69.045 63.5-75.442z" fill="#fff"/><path d="M225.818 525.722c-12.402 0-25.638-.319-38.962-1.163-.899-.058-3.205-.248-6.303-.505-8.878-.737-23.737-1.97-31.039-2.184a1.998 1.998 0 0 1-1.578-.85c-5.829-8.299-4.529-20.874 3.76-36.367 8.845-16.53 24.928-34.498 43.022-48.064 20.243-15.177 40.758-23.31 57.635-22.901.13.003.259.019.385.047 65.128 14.438 83.558 23.392 93.773 30.918 1.748 1.288 2.15 3.613 1.196 6.909-2.723 9.407-16.7 27.948-29.344 42.151-6.108 6.86-26.784 29.3-36.396 29.988-12.433.891-32.813 2.021-56.149 2.021zm-75.139-7.815c7.696.292 21.689 1.453 30.205 2.16 3.06.254 5.338.442 6.225.499 38.159 2.417 75.632.502 94.573-.855 10.949-.784 51.221-45.805 60.64-65.398 2.398-4.99 1.857-6.34 1.804-6.449-16.664-12.269-54.078-21.757-92.062-30.182-.312-.006-.627-.01-.94-.01-33.878 0-78.345 36.056-95.9 68.868-7.138 13.339-8.73 24.418-4.545 31.367z" fill="#25242e"/><path d="M321.248 434.298c36.275 12.383 55.218 39.594 61.058 51.476 20.421 41.542 7.176 66.413-7.506 65.769-20.129-.882-22.882-27.971-31.664-43.977-8.634-15.735-25.936-28.082-25.936-28.082" fill="#fff"/><path d="M375.355 553.555c-.214 0-.427-.004-.643-.014-15.965-.699-21.901-16.519-27.14-30.476-1.988-5.298-3.865-10.302-6.189-14.537-8.307-15.137-25.176-27.295-25.345-27.416a2.001 2.001 0 0 1 2.324-3.256c.722.515 17.774 12.797 26.526 28.748 2.462 4.486 4.479 9.859 6.429 15.056 5.27 14.04 10.246 27.301 23.57 27.885 4.253.183 8.39-2.257 11.298-6.706 9.233-14.129 3.123-38.286-5.675-56.184-1.814-3.691-18.915-36.471-59.91-50.465a1.999 1.999 0 0 1-1.246-2.539 1.996 1.996 0 0 1 2.539-1.246c42.518 14.514 60.317 48.642 62.207 52.485 17.818 36.249 8.663 55.193 5.434 60.136-3.561 5.45-8.7 8.529-14.179 8.529z" fill="#25242e"/><path d="M337.501 460.648c3.631 4.03 8.145 10.83 16.146 28.546 10.388 23 16.207 68.464-10.385 68.006-19.298-.332-14.648-27.856-18.322-45.503-2.042-9.808-8.897-20.634-14.909-29.191" fill="#fff"/><path d="M343.668 559.204c-.146 0-.292-.002-.439-.004-16.131-.278-17.413-17.303-18.544-32.322-.383-5.082-.778-10.337-1.702-14.773-2.037-9.787-9.301-20.924-14.587-28.449a2 2 0 1 1 3.273-2.299c5.49 7.815 13.042 19.421 15.229 29.934.977 4.69 1.383 10.078 1.774 15.288 1.293 17.159 3.009 28.422 14.624 28.622 5.637.075 9.764-1.99 12.652-6.381 8.68-13.193 3.182-42.627-4.124-58.802-8.365-18.521-12.687-24.563-15.811-28.03a2.001 2.001 0 0 1 2.972-2.678c3.33 3.696 7.893 10.04 16.482 29.062 7.394 16.368 13.721 47.599 3.82 62.646-3.57 5.433-8.826 8.185-15.619 8.186z" fill="#25242e"/><path d="M309.363 462.189c5.815 5.217 11.541 15.41 17.886 29.327 14.397 31.581 12.97 65.115-7.096 66.443-21.646 1.433-20.75-25.387-24.298-44.005-1.95-10.233-9.598-20.199-15.791-26.859" fill="#fff"/><path d="M318.446 560.017c-18.07.002-20.673-18.829-22.98-35.506-.498-3.595-.968-6.989-1.576-10.183-1.868-9.802-9.346-19.479-15.291-25.87a2 2 0 0 1 2.93-2.724c6.302 6.776 14.244 17.108 16.291 27.847.627 3.292 1.104 6.736 1.608 10.382 2.353 17.002 4.56 33.082 20.593 32.001 4.688-.31 8.352-2.623 10.893-6.876 6.807-11.394 4.552-34.727-5.484-56.742-6.964-15.276-12.331-24.118-17.401-28.667a2 2 0 0 1 2.672-2.976c5.5 4.935 11.165 14.182 18.369 29.984 10.716 23.507 12.837 47.801 5.278 60.453-3.208 5.371-8.071 8.419-14.062 8.816a29.13 29.13 0 0 1-1.84.061z" fill="#25242e"/><path d="M281.823 468.144c4.169 4.728 14.586 17.973 20.364 39.006 10.934 39.799-7.713 46.965-14.936 47.335-15.485.794-19.106-15.99-23.374-37.864" fill="#fff"/><path d="M286.206 556.512c-16.583.001-20.33-19.203-24.292-39.509a2 2 0 0 1 3.926-.766c4.474 22.921 7.871 36.938 21.31 36.25 3.518-.181 8.494-2.06 11.914-6.792 5.517-7.635 5.931-20.78 1.195-38.016-5.619-20.454-15.814-33.537-19.937-38.214a1.999 1.999 0 1 1 3-2.644c4.307 4.884 14.954 18.54 20.794 39.798 5.14 18.709 4.53 32.645-1.812 41.42-5.345 7.396-12.795 8.332-14.95 8.442a21.3 21.3 0 0 1-1.148.031z" fill="#25242e"/><path d="m252.305 415.687-63.449-10.604 40.905-39.155-97.051-112.43C88.237 296.791 66.334 323.69 29.951 365.711c-49.821 57.542-32.163 140.06 45.97 149.248 33.305 3.916 107.613 7.896 142.463 8.72" fill="#fff"/><path d="m218.385 525.68-.048-.001c-34.089-.807-108.369-4.702-142.649-8.733-33.716-3.965-59.268-22.259-70.104-50.192-12.552-32.355-3.794-71.573 22.856-102.353a7901.405 7901.405 0 0 0 15.274-17.709c27.726-32.215 49.626-57.661 87.6-94.628a2.001 2.001 0 0 1 2.909.126l97.051 112.431a1.998 1.998 0 0 1-.131 2.751l-38.021 36.396 59.514 9.945a2.002 2.002 0 0 1-.66 3.946l-63.449-10.604a2 2 0 0 1-1.053-3.417l39.532-37.842-94.421-109.384c-36.916 36.046-58.55 61.182-85.839 92.889-4.858 5.644-9.912 11.517-15.282 17.719-25.677 29.656-34.165 67.317-22.15 98.285 10.435 26.897 34.173 43.825 66.842 47.667 32.972 3.878 107.872 7.893 142.276 8.708a2.002 2.002 0 0 1-.047 4z" fill="#25242e"/><path d="M246.3 354.38c-12.315 12.232-57.444 50.703-57.444 50.703L19.239 380.024c14.675-27.142 76.654-92.875 120.291-132.846" fill="#25242e"/><path d="M188.856 407.083c-.097 0-.195-.007-.292-.021L18.946 382.003a2.001 2.001 0 0 1-1.468-2.93c14.403-26.637 75.171-91.667 120.701-133.37a1.999 1.999 0 1 1 2.701 2.95C96.963 288.88 38.869 350.784 22.421 378.473l165.827 24.499c5.733-4.896 45.351-38.795 56.643-50.011a2 2 0 1 1 2.818 2.838c-12.228 12.146-57.104 50.421-57.556 50.807-.364.31-.825.477-1.297.477zM513.787 681.23a2.002 2.002 0 0 1-1.607-3.19l32.17-43.491a2.004 2.004 0 0 1 2.798-.419 2.002 2.002 0 0 1 .419 2.798l-32.17 43.491a1.994 1.994 0 0 1-1.61.811z" fill="#25242e"/><path d="M367.275 81.067c-4.613-44.793-29.62-74.523-77.41-65.95-49.447 8.87-65.489 46.614-57.948 90.231-13.725-12.935-29.832 2.215-27.001 17.96 2.095 11.649 16.694 21.459 34.514 11.202 20.146 38.439 63.039 46.171 97.984 34.408 40.007-13.468 61.675-59.913 29.861-87.851z" fill="#fff"/><g fill="#25242e"><path d="M306.973 175.969c-8.497 0-16.832-1.167-24.675-3.513-18.94-5.666-34.003-17.827-43.676-35.233-8.298 4.229-16.67 4.757-23.765 1.458-6.293-2.927-10.746-8.541-11.911-15.019-1.669-9.282 2.723-19.054 10.441-23.236 5.135-2.781 10.703-2.603 15.808.374-2.83-21.136.112-39.93 8.594-54.598 10.176-17.601 27.578-28.722 51.723-33.053 21.024-3.77 38.58-.494 52.178 9.743 15.171 11.422 24.669 31.19 27.493 57.197 12.55 11.339 17.677 26.416 14.442 42.54-4.292 21.397-22.181 40.311-45.574 48.185-10.192 3.43-20.755 5.155-31.078 5.155zM239.43 132.51a2.002 2.002 0 0 1 1.772 1.072c11.152 21.28 34.441 38.65 65.348 38.652 9.412 0 19.526-1.61 30.227-5.211 21.723-7.312 38.974-25.469 42.928-45.181 2.992-14.912-1.891-28.859-13.747-39.271a2.001 2.001 0 0 1-.67-1.298c-2.602-25.254-11.593-44.337-26.003-55.185-12.671-9.54-29.177-12.569-49.064-9.001-22.933 4.113-39.407 14.583-48.967 31.118-8.655 14.969-11.201 34.612-7.364 56.804a2 2 0 0 1-3.342 1.797c-4.833-4.555-10.248-5.569-15.252-2.86-6.245 3.383-9.782 11.378-8.409 19.011.935 5.198 4.546 9.722 9.66 12.1 6.396 2.975 14.171 2.165 21.888-2.278.303-.179.648-.269.995-.269z"/><path d="M217.26 127.371a2 2 0 0 1-1.58-3.225l9.492-12.252a2.001 2.001 0 0 1 3.162 2.45l-9.492 12.252a2 2 0 0 1-1.582.775z"/><path d="M227.48 125.537c-.419 0-.843-.131-1.203-.404l-12.203-9.216a2 2 0 1 1 2.41-3.193l12.203 9.216a2 2 0 0 1-1.207 3.597zm44.34-77.383c35.648 20.02 83.844 14.061 100.76 7.767 5.402-39.609-45.258-78.026-82.715-40.804-66.542-10.65-82.302 59.808-66.605 85.565 2.697.537 7.433 3.114 8.657 4.666 3.909 8.399 31.588-23.86 39.903-57.194z"/><path d="M287.215 97.279h-.049a1.999 1.999 0 0 1-1.951-2.047c.232-9.764 6.352-20.357 19.237-20.545h.03a2 2 0 0 1 .028 4c-10.297.149-15.103 8.466-15.298 16.641a1.997 1.997 0 0 1-1.997 1.951z"/><path d="M305.746 87.057c1.66 7.469.363 14.112-2.898 14.836s-7.249-4.743-8.909-12.212c-.791-3.559-.911-6.93-.466-9.563.075-.442 7.566-3.315 7.954-2.843 1.803 2.202 3.41 5.692 4.319 9.782zm25.451-1.353h-.049a1.999 1.999 0 0 1-1.951-2.047c.232-9.764 6.352-20.358 19.237-20.546h.03a2 2 0 0 1 .028 4c-10.297.149-15.103 8.466-15.298 16.642a1.998 1.998 0 0 1-1.997 1.951z"/><path d="M349.729 75.481c1.66 7.469.363 14.112-2.898 14.836-3.26.725-7.249-4.743-8.909-12.212-.791-3.559-.911-6.93-.466-9.563.075-.442 7.566-3.315 7.953-2.843 1.804 2.202 3.411 5.692 4.32 9.782z"/></g><path d="M342.402 114.701c3.999 3.723 12.101 11.547 5.866 16.791-9.979 8.392-22.312-.882-26.276-7.878 0 0 12.144 8.2 21.393 1.756 6.695-4.664-.983-10.669-.983-10.669zm-17.995-.174c-7.872-8.176 18.987-21.683 19.506-7.664-6.222 4.138-12.717 6.73-19.506 7.664z" fill="#dda6ff"/><path d="M337.199 109.102c9.382 6.963 10.357 12.669 6.185 16.269-4.847 4.182-15.259 6.636-23.78-6.241 4.803-4.603 11.237-8.709 17.595-10.028z" fill="#fff"/><path d="M334.55 131.129c-.444 0-.891-.024-1.337-.071-5.092-.535-10.206-4.142-15.201-10.719a2 2 0 0 1 3.186-2.419c4.301 5.663 8.483 8.745 12.434 9.16 2.817.294 5.588-.758 8.447-3.224.866-.747 1.261-1.717 1.207-2.965-.133-3.084-2.981-7.076-7.258-10.168a1.999 1.999 0 1 1 2.344-3.241c5.391 3.898 8.722 8.848 8.91 13.238.106 2.479-.789 4.611-2.59 6.165-3.27 2.821-6.675 4.244-10.142 4.244z" fill="#25242e"/><path d="M319.604 121.13a2.001 2.001 0 0 1-1.56-3.251c4.991-6.23 13.515-9.043 23.384-12.301l1.854-.613a2 2 0 0 1 1.259 3.797l-1.86.615c-9.265 3.058-17.267 5.699-21.517 11.003a1.99 1.99 0 0 1-1.56.75z" fill="#25242e"/><path d="M358.961 49.557c-15.678 0-36.95-3.421-57.558-17.668a2 2 0 0 1 2.275-3.29c26.718 18.473 54.636 17.986 68.9 16.052a2.007 2.007 0 0 1 2.25 1.713 2 2 0 0 1-1.713 2.25c-3.849.523-8.659.943-14.154.943zm131.058 349.308a1.999 1.999 0 0 1-1.989-1.813c-.067-.716-6.725-71.79-9.468-93.542-2.617-20.752-7.367-34.622-7.415-34.76a2 2 0 0 1 3.779-1.31c.2.577 4.931 14.37 7.604 35.569 2.751 21.815 9.414 92.954 9.481 93.669a2 2 0 0 1-1.992 2.187zm-301.162 8.218a1.999 1.999 0 0 1-1.324-3.499l57.444-50.703a1.999 1.999 0 1 1 2.646 2.998l-57.444 50.703c-.38.336-.853.501-1.322.501z" fill="#fff"/></svg></g><g transform="translate(2598.0 1518.0) rotate(0.0 -873.75 441.75) scale(-1.4678348868444195 1.4680688787675864)"><svg width="1190.529" height="601.811" viewBox="0 0 1190.529 601.811"><path d="M292.489 587.208a7 7 0 0 1-7-7V408.036a7 7 0 1 1 14 0v172.172a7 7 0 0 1-7 7z" fill="#25242e"/><rect fill="#fff" height="406.723" rx="2.396" width="28.34" x="278.319" y="19.696"/><path d="M303.882 428.419h-22.785a4.783 4.783 0 0 1-4.777-4.777V19.696a2 2 0 0 1 2-2h28.34a2 2 0 0 1 2 2v403.946a4.783 4.783 0 0 1-4.778 4.777zM280.319 21.696v401.946c0 .429.349.777.777.777h22.785a.779.779 0 0 0 .778-.777V21.696z" fill="#25242e"/><rect fill="#fff" height="37.061" rx="2.396" width="28.34" x="278.319" y="550.358"/><path d="M306.66 589.419h-28.34a2 2 0 0 1-2-2v-34.284a4.782 4.782 0 0 1 4.777-4.777h22.785a4.784 4.784 0 0 1 4.778 4.777v34.284a2 2 0 0 1-2 2zm-26.34-4h24.34v-32.284a.778.778 0 0 0-.778-.777h-22.785a.778.778 0 0 0-.777.777z" fill="#25242e"/><path d="M118.932 572.88h347.115c14.864 0 26.932 12.068 26.932 26.932H92c0-14.864 12.068-26.932 26.932-26.932z" fill="#fff"/><path d="M492.979 601.812H92a2 2 0 0 1-2-2c0-15.953 12.979-28.932 28.932-28.932H278.32a2 2 0 0 1 0 4H118.932c-13.074 0-23.831 10.115-24.852 22.932h396.819c-1.021-12.816-11.777-22.932-24.852-22.932H292.489a2 2 0 0 1 0-4h173.558c15.953 0 28.931 12.979 28.931 28.932a2 2 0 0 1-2 2z" fill="#25242e"/><rect fill="#fff" height="42.229" rx="10.635" width="1186.529" x="2" y="2"/><g fill="#25242e"><path d="M1177.893 46.229H12.635C5.668 46.229 0 40.561 0 33.594V12.635C0 5.668 5.668 0 12.635 0h1165.258c6.967 0 12.635 5.668 12.635 12.635v20.959c0 6.967-5.668 12.635-12.635 12.635zM12.635 4C7.873 4 4 7.873 4 12.635v20.959c0 4.762 3.874 8.635 8.635 8.635h1165.258c4.762 0 8.635-3.873 8.635-8.635V12.635c0-4.762-3.874-8.635-8.635-8.635z"/><path d="M1177.893 46.229a2 2 0 0 1 0-4c4.762 0 8.635-3.874 8.635-8.635V12.635c0-4.761-3.874-8.635-8.635-8.635a2 2 0 0 1 0-4c6.967 0 12.635 5.668 12.635 12.635v20.959c0 6.967-5.668 12.635-12.635 12.635z"/></g></svg></g><g transform="translate(274.5 1132.5) rotate(0.0 315.0 397.5) scale(1.502715621802257 1.50115560658016)"><svg width="419.241" height="529.592" viewBox="0 0 419.241 529.592"><g><path style="fill:#fff" d="M14.93 2h84.684c10.598 0 19.628 7.693 21.312 18.156l30.502 183.264c10.8 64.888 66.935 112.452 132.715 112.452h45.709c20.191 0 36.558 16.368 36.558 36.559v110.894c0 3.264 1.11 6.431 3.147 8.982l47.683 55.286H180.81a51.625 51.625 0 0 1-37.964-16.642l-58.658-63.659a79.658 79.658 0 0 1-20.086-41.449L2.164 16.96C.913 9.109 6.98 2 14.93 2z"/><path style="fill:#25242e" d="M417.242 529.592H180.81c-14.938 0-29.312-6.301-39.436-17.286l-58.658-63.659a81.404 81.404 0 0 1-20.59-42.49L.189 17.275A14.903 14.903 0 0 1 3.576 5.237 14.903 14.903 0 0 1 14.93 0h84.685c11.644 0 21.437 8.343 23.286 19.838l30.5 183.253a132.69 132.69 0 0 0 45.06 79.361 132.693 132.693 0 0 0 85.683 31.419h45.71c21.262 0 38.559 17.297 38.559 38.559v110.894c0 2.8.963 5.547 2.71 7.734l47.635 55.227a2 2 0 0 1-1.516 3.307zM14.93 4a10.912 10.912 0 0 0-8.312 3.834 10.916 10.916 0 0 0-2.479 8.812l61.938 388.882a77.419 77.419 0 0 0 19.581 40.408l58.658 63.659c9.368 10.166 22.67 15.997 36.494 15.997h232.065l-44.831-51.979a16.498 16.498 0 0 1-3.633-10.289V352.431c0-19.056-15.503-34.559-34.559-34.559h-45.71a136.698 136.698 0 0 1-88.268-32.367 136.693 136.693 0 0 1-46.42-81.757L118.953 20.485C117.415 10.928 109.284 4 99.615 4H14.93z"/><path style="fill:#25242e" d="M362.139 500.1a1.996 1.996 0 0 1-1.575-.766l-20.224-25.793a16.447 16.447 0 0 1-3.573-10.217V352.431a34.566 34.566 0 0 0-8.242-22.4 2 2 0 1 1 3.045-2.593 38.569 38.569 0 0 1 9.197 24.994v110.894c0 2.799.963 5.546 2.71 7.734l20.235 25.807a2.001 2.001 0 0 1-.34 2.809 2.002 2.002 0 0 1-1.233.424zM107.02 104.71a2 2 0 0 1-1.971-1.672l-13.74-82.553C89.771 10.928 81.639 4 71.97 4a2 2 0 0 1 0-4c11.644 0 21.437 8.343 23.286 19.838l13.738 82.543a2 2 0 0 1-1.974 2.329z"/></g></svg></g><g transform="translate(309.0 1185.0) rotate(0.0 298.5 237.75) scale(1.5122346623435838 1.5103101297183295)"><svg width="394.78" height="314.836" viewBox="0 0 394.78 314.836"><g><g><g><g><path style="fill:#fff" d="M345.324 201.085c-16.646-12.265-52.601-21.617-93.019-30.577-51.014-1.232-121.825 77.005-102.732 104.184 9.947.292 33.984 2.474 37.409 2.691 32.138 2.036 66.77 1.154 94.842-.856 14.882-1.065 72.182-69.046 63.5-75.442z"/><path style="fill:#25242e" d="M225.816 280.543c-12.403 0-25.638-.319-38.96-1.163-.904-.057-3.233-.25-6.358-.509-8.863-.735-23.697-1.965-30.983-2.179a2 2 0 0 1-1.578-.849c-5.829-8.298-4.529-20.873 3.759-36.365 8.844-16.53 24.927-34.499 43.021-48.065 20.244-15.178 40.729-23.32 57.637-22.903.13.003.259.019.385.047 65.126 14.437 83.557 23.392 93.772 30.919 1.748 1.288 2.151 3.612 1.197 6.908-2.723 9.406-16.699 27.947-29.344 42.15-6.107 6.861-26.784 29.301-36.396 29.99-12.436.889-32.82 2.019-56.152 2.019zm-75.137-7.814c7.681.292 21.648 1.45 30.148 2.155 3.087.256 5.388.447 6.28.503 38.146 2.416 75.626.501 94.574-.855 10.949-.784 51.221-45.805 60.639-65.398 2.399-4.992 1.857-6.34 1.804-6.449-16.665-12.271-54.078-21.759-92.061-30.183a49.019 49.019 0 0 0-.94-.009c-33.88 0-78.347 36.056-95.901 68.87-7.136 13.338-8.728 24.417-4.543 31.366zm193.458-70.034h.01-.01z"/></g><g><g><g><path style="fill:#fff" d="M321.248 189.12c36.275 12.383 55.218 39.594 61.058 51.476 20.421 41.542 7.176 66.413-7.506 65.769-20.129-.882-22.882-27.971-31.664-43.977-8.634-15.735-25.936-28.082-25.936-28.082"/><path style="fill:#25242e" d="M375.355 308.377a15.4 15.4 0 0 1-.643-.014c-15.966-.699-21.902-16.52-27.141-30.477-1.987-5.297-3.865-10.301-6.188-14.536-8.307-15.137-25.177-27.295-25.346-27.416a2 2 0 0 1 2.324-3.256c.722.515 17.774 12.796 26.527 28.748 2.462 4.486 4.478 9.858 6.428 15.054 5.27 14.041 10.246 27.302 23.571 27.886 4.25.186 8.39-2.257 11.298-6.707 9.233-14.128 3.123-38.286-5.675-56.183-1.814-3.691-18.914-36.471-59.91-50.465a1.999 1.999 0 0 1-1.246-2.539 1.996 1.996 0 0 1 2.539-1.247c42.519 14.514 60.317 48.642 62.207 52.486 17.818 36.248 8.663 55.193 5.434 60.136-3.561 5.45-8.7 8.529-14.179 8.53z"/></g></g></g><g><g><g><path style="fill:#fff" d="M337.501 215.47c3.631 4.03 8.145 10.83 16.146 28.546 10.388 23 16.207 68.464-10.385 68.006-19.298-.332-14.648-27.856-18.322-45.503-2.042-9.808-8.897-20.634-14.909-29.191"/><path style="fill:#25242e" d="M343.668 314.025c-.146 0-.292-.001-.439-.004-16.131-.277-17.413-17.301-18.544-32.321-.383-5.082-.778-10.337-1.702-14.773-2.037-9.792-9.301-20.926-14.588-28.449a2 2 0 0 1 3.273-2.3c5.49 7.814 13.042 19.418 15.23 29.934.977 4.69 1.382 10.078 1.774 15.288 1.292 17.16 3.008 28.422 14.624 28.622 5.676.092 9.764-1.99 12.652-6.381 8.68-13.194 3.182-42.627-4.124-58.802-8.368-18.524-12.688-24.564-15.811-28.03a2.001 2.001 0 0 1 2.972-2.678c3.328 3.694 7.89 10.036 16.482 29.061 7.394 16.368 13.721 47.599 3.82 62.647-3.571 5.433-8.825 8.186-15.619 8.186z"/></g></g></g><g><g><g><path style="fill:#fff" d="M309.363 217.011c5.815 5.217 11.541 15.41 17.886 29.327 14.397 31.581 12.97 65.115-7.096 66.443-21.646 1.432-20.75-25.387-24.298-44.005-1.95-10.233-9.598-20.199-15.791-26.859"/><path style="fill:#25242e" d="M318.447 314.838c-18.071.002-20.674-18.829-22.98-35.506-.498-3.594-.968-6.989-1.576-10.182-1.867-9.8-9.346-19.478-15.291-25.871a2 2 0 0 1 2.93-2.724c6.303 6.778 14.245 17.11 16.291 27.846.627 3.293 1.104 6.737 1.608 10.383 2.352 17.002 4.551 33.056 20.593 32.001 4.688-.31 8.353-2.624 10.893-6.876 6.807-11.395 4.551-34.727-5.484-56.741-6.964-15.277-12.331-24.119-17.402-28.668a1.999 1.999 0 0 1-.152-2.824 1.998 1.998 0 0 1 2.824-.153c5.501 4.936 11.166 14.184 18.37 29.986 10.716 23.505 12.837 47.799 5.278 60.452-3.208 5.371-8.071 8.42-14.062 8.816-.631.041-1.246.061-1.84.061z"/></g></g></g><g><g><g><g><path style="fill:#fff" d="M281.823 222.965c4.169 4.728 14.586 17.973 20.364 39.006 10.934 39.799-7.713 46.965-14.936 47.335-15.485.794-19.106-15.99-23.374-37.864"/><path style="fill:#25242e" d="M286.205 311.333c-16.582.001-20.329-19.203-24.291-39.508a2 2 0 0 1 3.926-.766c4.368 22.384 7.734 36.273 20.38 36.273.304 0 .613-.008.929-.024 3.518-.18 8.494-2.059 11.914-6.791 5.517-7.635 5.931-20.781 1.195-38.017-5.618-20.453-15.813-33.537-19.936-38.212a2 2 0 0 1 3-2.646c4.307 4.885 14.954 18.541 20.793 39.798 5.14 18.709 4.53 32.644-1.811 41.419-5.346 7.397-12.795 8.332-14.951 8.443a21.3 21.3 0 0 1-1.148.031z"/></g></g></g></g></g><g><path style="fill:#fff" d="m252.305 170.508-63.449-10.604 40.905-39.155-97.052-112.43C88.237 51.613 66.334 78.511 29.951 120.533c-49.821 57.542-32.163 140.06 45.97 149.248 33.305 3.916 107.613 7.896 142.463 8.72"/><path style="fill:#25242e" d="M218.385 280.501h-.048c-34.081-.807-108.357-4.701-142.649-8.734-33.716-3.964-59.269-22.259-70.105-50.193-12.551-32.354-3.793-71.572 22.856-102.351a7829.917 7829.917 0 0 0 15.28-17.717c27.726-32.212 49.624-57.655 87.595-94.621a2.001 2.001 0 0 1 2.909.126l97.051 112.431a1.998 1.998 0 0 1-.131 2.751l-38.021 36.396 59.514 9.946a2.001 2.001 0 0 1-.66 3.945l-63.449-10.604a2 2 0 0 1-1.053-3.418l39.532-37.842-94.422-109.382c-36.913 36.043-58.546 61.177-85.833 92.881-4.86 5.646-9.917 11.521-15.289 17.726-25.677 29.656-34.164 67.317-22.15 98.286 10.435 26.897 34.173 43.826 66.843 47.667 32.982 3.878 107.88 7.894 142.276 8.708a2 2 0 0 1-.046 3.999z"/></g></g><g><path style="fill:#25242e" d="M246.3 109.201c-12.315 12.232-57.444 50.703-57.444 50.703L19.239 134.846C33.914 107.704 95.893 41.97 139.53 2"/><path style="fill:#25242e" d="M188.856 161.905c-.098 0-.195-.007-.292-.021l-169.617-25.06a1.999 1.999 0 0 1-1.468-2.93c14.402-26.635 75.17-91.665 120.7-133.369a1.999 1.999 0 1 1 2.701 2.95C96.962 43.703 38.869 105.607 22.421 133.294l165.827 24.5c5.733-4.897 45.351-38.795 56.643-50.011a2 2 0 1 1 2.818 2.838c-12.228 12.146-57.104 50.421-57.556 50.806-.364.31-.825.478-1.297.478z"/></g><path style="fill:#fff" d="M188.857 161.905a2 2 0 0 1-1.324-3.499l57.444-50.703a1.999 1.999 0 1 1 2.646 2.999l-57.444 50.703c-.38.335-.852.5-1.322.5z"/></g></svg></g><g transform="translate(934.5 522.0) rotate(0.0 234.75 192.0) scale(1.5044846138809935 1.5037122897152344)"><svg width="312.067" height="255.368" viewBox="0 0 312.067 255.368"><path d="M156.033 2C70.963 2 2 54.082 2 118.329c0 36.768 22.594 69.546 57.861 90.864l-26.689 44.175 58.979-29.16c19.462 6.708 41.093 10.45 63.883 10.45 85.07 0 154.033-52.082 154.033-116.329S241.104 2 156.033 2z" fill="#fff"/><g fill="#25242e"><path d="M33.173 255.368a1.999 1.999 0 0 1-1.713-3.034l25.661-42.474C20.791 187.273 0 154.009 0 118.329 0 53.082 69.996 0 156.033 0s156.033 53.082 156.033 118.329-69.996 118.328-156.033 118.328c-22.203 0-43.646-3.461-63.742-10.288l-58.232 28.792a2.005 2.005 0 0 1-.886.207zM156.033 4C72.202 4 4 55.288 4 118.329c0 34.801 20.737 67.296 56.895 89.153a2 2 0 0 1 .678 2.746L38.427 248.54l52.838-26.125a2 2 0 0 1 1.538-.098c19.906 6.861 41.18 10.34 63.231 10.34 83.831 0 152.033-51.288 152.033-114.329S239.864 4 156.033 4z"/><path d="M115.641 202.01c-.339 0-.682-.086-.996-.267-16.972-9.774-23.63-22.954-25.611-35.028-19.823-10.804-27.566-28.677-21.888-51.386 7.242-28.959 22.493-34.618 31.233-35.342 21.143-26.406 46.353-42.675 70.195-45.039 16.827-1.667 32.459 3.723 45.206 15.589 6.07 5.65 10.17 12.047 12.652 18.697 3.729 2.57 6.547 5.578 8.649 8.442 8.336 11.359 10.955 28.028 7.477 44.143 5.305 12.486 4.691 23.546 2.933 31.199-2.784 12.117-10.172 22.814-20.267 29.35-13.808 8.938-34.866 11.054-53.66-7.775-25.024 4.846-50.762 3.944-70.422-2.664a80.916 80.916 0 0 1-7.561-2.956c2.409 10.271 8.785 21.083 23.059 29.303a2 2 0 0 1-.999 3.734zm60.922-28.465c12.427 11.063 29.134 16.697 46.488 5.464 18.148-11.748 22.57-32.299 17.573-50.126a65.971 65.971 0 0 1-1.898 5.003c-7.269 17.024-28.293 31.087-57.684 38.583-1.488.38-2.98.738-4.479 1.076zm-83.841-9.39c2.895 1.445 6.116 2.78 9.695 3.983 18.394 6.183 42.348 7.19 65.923 2.988-2.319-2.669-4.594-5.679-6.807-9.06a54.257 54.257 0 0 1-1.009-1.604c-13.037-2.369-21.46-12.129-23.252-27.123-1.053-8.804 4.52-17.512 15.089-24.417 1.097-5.945 2.877-11.698 5.354-16.999-9.087-1.147-19.045.09-29.165 3.817a26.398 26.398 0 0 1 2.137 4.192c3.225 8.111 1.314 15.867-5.242 21.281-7.451 6.152-16.354 7.197-23.98 3.194-4.723 8.994-8.139 19.125-8.941 29.003-.271 3.32-.275 6.959.198 10.745zm72.906-3.161a70.446 70.446 0 0 0 7.465 9.212 161.98 161.98 0 0 0 6.961-1.613c28.174-7.185 48.218-20.407 54.992-36.277a60.897 60.897 0 0 0 3.265-9.981 51.144 51.144 0 0 0-3.913-7.388c-2.238-3.496-5.261-6.315-8.851-8.522a52.219 52.219 0 0 1-2.284 4.905c-4.836 9.102-13.123 17.819-24.496 22.207a39.385 39.385 0 0 1-2.115 10.217c-3.547 10.15-17.386 17.646-31.024 17.24zM94.774 84.641C83.807 87.513 75.463 98.559 71.027 116.3c-3.646 14.579-2.88 33.188 17.44 45.514a58.5 58.5 0 0 1 .069-8.729c.864-10.621 4.484-21.373 9.521-30.875a25.255 25.255 0 0 1-1.816-1.549c-8.146-7.62-12.028-21.402-3.687-33a197.844 197.844 0 0 1 2.22-3.02zm68.244 72.152.318.037c12.574 1.375 26.38-5.355 29.54-14.396a35.441 35.441 0 0 0 1.742-7.532c-7.027 1.925-15.077 2.232-24.091.149a2 2 0 0 1 .9-3.898c8.846 2.045 16.683 1.578 23.433-.529-.04-9.742-4.111-19.349-11.691-26.75a42.129 42.129 0 0 0-2.173-1.978 90.088 90.088 0 0 0-11.993 3.367c-5.139 1.843-9.444 3.886-13.016 6.04-2.556 15.727-.125 32.659 7.031 45.49zm-11.458-42.488c-8.231 6.304-10.961 13.164-10.315 18.559 1.773 14.833 9.806 20.628 16.706 22.834-5.838-12.117-8.026-27.074-6.391-41.393zm34.395-13.301.008.008c7.992 7.803 12.448 17.846 12.869 28.135 9.633-4.18 16.691-11.777 20.897-19.694a48.266 48.266 0 0 0 2.271-4.931c-9.974-4.647-23.173-5.467-36.045-3.518zm-82.541 19.88c5.395 2.776 12.435 3.067 19.484-2.756 7.021-5.797 5.565-12.963 4.072-16.718a22.355 22.355 0 0 0-2.1-3.989c-7.245 4.057-15.218 12.752-21.456 23.463zm-3.029-36.99a183.85 183.85 0 0 0-4.582 6.104c-6.994 9.723-3.699 21.316 3.171 27.743.34.318.693.627 1.061.926 6.441-10.985 14.672-19.925 22.383-24.442-5.119-5.776-13.142-10.332-21.742-10.332-.097-.001-.194 0-.291.001zm126.528 18.748c4.415 2.554 8.138 5.907 10.854 10.148a64.205 64.205 0 0 1 1.736 2.873c1.645-13.273-.989-26.549-7.646-35.619a33.165 33.165 0 0 0-3.448-3.998c1.921 9.096 1.137 18.359-1.496 26.596zm-65.095-10.026a49.17 49.17 0 0 0-.252.52c-1.961 4.099-3.479 8.492-4.558 13.04 3.212-1.719 6.771-3.29 10.645-4.678a91.199 91.199 0 0 1 9.134-2.737c-4.499-2.933-9.546-4.989-14.969-6.145zm36.673 3.468c8.963 0 17.593 1.465 24.81 4.711 2.742-8.987 3.104-19.23-.198-28.951-6.765-4.246-15.264-5.954-25.132-4.975-18.081 1.793-28.403 12.233-34.183 22.081 6.739 1.595 12.934 4.501 18.295 8.675 5.433-1.004 10.982-1.541 16.408-1.541zm-94.984-16.058c9.177.881 17.379 6.004 22.621 12.356.165-.066.328-.13.492-.192 11.455-4.314 22.771-5.615 33.024-4.046 8.184-14.706 21.529-23.629 37.932-25.256 9.581-.951 17.131.492 23.043 3.101-2.277-4.432-5.42-8.667-9.563-12.525-12.052-11.219-26.215-16.109-42.087-14.536-22.039 2.186-45.433 16.982-65.462 41.098z"/></g></svg></g></svg>